<?xml version="1.0" standalone="no"?>
<!DOCTYPE svg PUBLIC "-//W3C//DTD SVG 20010904//EN"
 "http://www.w3.org/TR/2001/REC-SVG-20010904/DTD/svg10.dtd">
<svg version="1.0" xmlns="http://www.w3.org/2000/svg"
 width="1000.000000pt" height="1000.000000pt" viewBox="0 0 1000.000000 1000.000000"
 preserveAspectRatio="xMidYMid meet">
<metadata>
Created by potrace 1.14, written by Peter Selinger 2001-2017
</metadata>
<g transform="translate(0.000000,1000.000000) scale(0.100000,-0.100000)"
fill="#000000" stroke="none">
<path d="M0 5000 l0 -5000 1388 0 c1066 0 1391 3 1400 12 9 9 12 9 12 0 0 -19
113 -15 149 5 30 18 59 10 31 -7 -9 -6 480 -10 1287 -10 1230 0 1303 1 1312
17 10 17 10 17 11 1 0 -14 8 -18 35 -18 26 0 33 3 29 15 -7 17 -34 21 -34 5 0
-5 -5 -10 -11 -10 -5 0 -8 4 -4 9 3 5 1 12 -5 16 -6 4 -5 11 2 19 11 11 15 11
24 -2 10 -14 13 -13 25 6 8 12 17 22 21 22 11 0 15 -33 6 -58 -7 -21 -6 -22
65 -22 45 0 78 5 86 12 11 10 12 10 7 1 -6 -10 418 -13 2078 -13 l2086 0 0
5000 0 5000 -5000 0 -5000 0 0 -5000z m4428 3868 c10 -9 15 -9 21 0 5 9 13 7
28 -8 18 -17 22 -17 25 -4 3 13 7 13 27 -5 25 -22 56 -27 65 -12 3 5 28 7 56
6 31 -1 50 2 50 9 0 6 7 2 15 -8 8 -11 15 -16 15 -10 0 5 5 2 10 -6 8 -13 11
-11 16 8 7 25 22 29 30 7 5 -11 10 -13 19 -5 6 5 15 7 18 3 4 -3 7 -1 7 5 0 7
5 12 10 12 6 0 10 -11 10 -25 0 -30 16 -33 23 -4 3 12 10 18 17 14 6 -4 17 0
23 9 15 20 64 15 58 -5 -2 -8 -6 -22 -8 -31 -9 -29 15 -20 32 12 18 35 30 40
22 9 -4 -17 -3 -19 6 -10 16 16 27 14 27 -6 0 -15 1 -15 13 2 13 17 14 17 20
-6 5 -18 9 -21 18 -12 10 10 16 10 27 1 10 -9 15 -9 21 1 11 16 67 20 63 3 -2
-9 6 -9 32 2 32 13 35 13 54 -7 37 -40 50 -46 83 -41 52 7 109 -5 102 -21 -4
-12 5 -13 45 -8 45 5 53 3 77 -21 14 -14 30 -26 35 -26 5 0 14 -9 20 -20 8
-15 21 -20 56 -20 28 0 43 -4 39 -10 -3 -5 1 -10 11 -10 13 0 14 -3 4 -15 -10
-12 -7 -15 14 -21 14 -3 33 -4 41 0 8 3 15 1 15 -4 0 -6 14 -10 31 -10 16 0
28 -4 25 -8 -5 -9 19 -24 67 -42 15 -5 27 -15 27 -21 0 -8 13 -10 39 -5 30 4
43 1 61 -14 13 -11 46 -27 73 -35 27 -8 55 -19 61 -23 6 -5 24 -12 40 -16 16
-4 41 -16 54 -27 14 -10 32 -19 40 -19 9 0 23 -7 32 -15 10 -9 30 -18 46 -21
16 -3 40 -17 54 -32 14 -15 37 -36 51 -47 14 -11 33 -32 43 -47 10 -15 23 -25
31 -22 8 3 20 -6 28 -23 8 -15 38 -46 66 -68 27 -22 50 -44 51 -49 0 -5 17
-25 38 -44 20 -20 36 -39 34 -44 -1 -4 1 -7 5 -6 5 1 22 -6 40 -15 18 -9 39
-17 48 -17 38 0 165 -119 185 -173 6 -18 16 -40 21 -49 5 -10 5 -19 -1 -23 -6
-4 1 -27 15 -56 21 -40 24 -56 17 -82 -5 -18 -7 -38 -4 -46 3 -9 0 -11 -8 -6
-10 6 -11 4 -5 -11 6 -16 10 -52 18 -164 1 -18 -3 -25 -16 -24 -15 2 -16 -1
-5 -13 11 -14 10 -15 -12 -9 -14 4 -20 4 -14 -1 17 -13 36 -53 31 -67 -3 -6 3
-29 13 -49 10 -20 14 -34 9 -31 -6 3 -7 -5 -3 -22 6 -25 5 -27 -19 -22 -22 4
-28 0 -36 -23 -8 -23 -7 -31 7 -39 9 -5 13 -10 7 -10 -5 0 -5 -4 2 -8 15 -10
25 -72 10 -66 -8 3 -11 -11 -9 -46 3 -35 8 -50 18 -50 8 0 15 -4 15 -10 3 -20
4 -25 12 -37 10 -16 -1 -36 -14 -28 -5 4 -9 -18 -9 -50 0 -61 -12 -95 -35 -95
-8 0 -12 -8 -10 -20 4 -22 -10 -36 -20 -20 -11 17 -27 11 -21 -8 4 -10 -1 -27
-9 -38 -8 -10 -15 -33 -15 -49 0 -17 -5 -36 -12 -43 -7 -7 -8 -12 -1 -12 7 0
7 -17 2 -51 -4 -27 -5 -57 -2 -66 5 -12 2 -15 -10 -10 -12 5 -19 -3 -27 -31
-13 -48 -13 -51 6 -69 13 -14 17 -14 25 -2 9 14 13 36 9 54 -1 6 3 6 9 -1 12
-11 3 -77 -9 -69 -9 6 -20 -19 -20 -46 0 -21 -1 -22 -23 -13 -13 5 -12 9 5 26
24 24 19 31 -16 22 -15 -3 -23 -11 -19 -17 3 -6 -6 -2 -20 9 -15 10 -27 25
-27 32 0 6 -6 12 -14 12 -7 0 -19 7 -26 15 -7 8 -20 15 -30 15 -14 0 -17 5
-12 22 3 14 2 19 -6 14 -7 -4 -12 -14 -12 -23 0 -14 -2 -14 -20 2 -11 10 -17
22 -14 26 3 5 -2 6 -10 3 -9 -3 -16 -2 -16 4 0 5 -7 13 -16 16 -15 6 -15 4 -3
-10 12 -15 10 -16 -31 -11 -80 11 -265 13 -277 4 -8 -6 -13 -5 -13 2 0 6 -11
8 -30 5 -19 -4 -38 -1 -55 10 -14 9 -25 13 -25 9 0 -5 -4 -3 -8 3 -4 6 -34 18
-66 27 -65 18 -89 16 -32 -3 20 -6 34 -16 30 -21 -3 -5 -12 -5 -23 0 -10 6
-23 6 -32 0 -7 -5 -23 -9 -34 -9 -14 0 -16 3 -7 9 8 5 -4 8 -31 7 -25 -1 -42
-3 -39 -6 14 -10 11 -30 -4 -30 -8 0 -13 4 -9 9 3 5 -5 13 -17 17 -22 7 -22 7
-3 15 14 5 16 8 4 8 -23 1 -31 -10 -18 -26 9 -10 8 -13 -4 -13 -8 0 -23 -3
-33 -7 -11 -4 -15 -3 -11 4 13 21 -18 20 -58 0 -22 -12 -42 -21 -45 -22 -3 0
-11 -4 -19 -9 -11 -7 -13 -4 -9 11 4 16 2 19 -13 16 -11 -3 -27 1 -36 8 -13
11 -15 11 -9 1 6 -10 -2 -13 -38 -10 -25 2 -46 -1 -46 -6 0 -12 73 -16 88 -4
8 7 12 7 12 0 0 -15 -28 -23 -58 -16 -21 4 -24 3 -12 -5 11 -8 5 -9 -25 -5
-53 8 -125 8 -132 0 -4 -3 10 -6 30 -6 20 0 39 -5 43 -11 4 -8 -1 -9 -16 -4
-15 5 -20 4 -16 -3 4 -7 -12 -12 -46 -14 -36 -2 -52 -7 -50 -15 1 -8 -10 -14
-30 -15 -51 -2 -56 -3 -64 -11 -4 -4 -12 -7 -18 -7 -5 0 -1 7 10 16 18 14 18
15 -6 9 l-25 -5 24 12 c19 10 25 10 28 1 5 -14 53 4 53 19 0 4 6 8 14 8 8 0
18 4 21 10 7 12 -22 2 -48 -16 -10 -6 -27 -10 -37 -7 -19 5 -65 -15 -56 -24 3
-4 -8 -14 -24 -24 -17 -11 -30 -25 -30 -33 0 -8 -10 -18 -21 -21 -15 -5 -18
-9 -9 -15 9 -6 8 -10 -6 -18 -14 -8 -16 -13 -6 -24 14 -17 6 -28 -19 -28 -9 0
-20 -7 -23 -16 -3 -8 -2 -12 4 -9 5 3 7 -1 4 -9 -3 -8 -13 -17 -21 -20 -18 -7
-46 12 -37 25 3 5 0 9 -6 9 -6 0 -8 -10 -4 -25 5 -20 1 -28 -25 -42 -17 -10
-29 -23 -27 -30 3 -6 -3 -10 -12 -8 -23 3 -37 -6 -22 -15 9 -6 7 -13 -9 -26
-11 -10 -21 -26 -21 -35 0 -9 -7 -19 -15 -23 -8 -3 -14 -9 -13 -13 2 -4 -3
-23 -11 -41 -11 -25 -11 -35 -1 -47 6 -8 9 -19 5 -25 -8 -12 7 -13 20 -1 6 5
31 13 57 19 37 7 52 6 65 -4 10 -7 26 -14 36 -14 24 0 21 -17 -5 -24 -15 -3
-19 -9 -13 -15 11 -11 85 8 85 21 0 5 7 8 15 8 9 0 12 6 8 17 -5 12 -2 15 9
10 10 -3 31 7 55 28 38 32 40 33 53 14 20 -27 28 -24 32 14 2 19 8 31 16 29 6
-1 12 5 12 14 0 8 4 13 10 9 5 -3 7 -12 3 -20 -3 -8 0 -15 6 -15 6 0 11 9 11
19 0 12 7 18 18 17 11 -1 16 5 14 16 -2 12 2 16 13 12 8 -3 12 -11 8 -18 -3
-6 6 0 20 13 19 17 30 21 39 14 11 -9 23 -10 70 -4 3 1 11 13 16 29 6 16 11
20 11 10 1 -15 4 -16 36 -3 18 8 44 15 57 14 13 0 41 4 63 10 30 8 55 7 100
-4 33 -8 71 -16 85 -19 28 -4 141 -53 150 -64 3 -4 28 -23 57 -42 48 -32 75
-66 77 -98 1 -7 8 -17 16 -22 13 -9 13 -10 0 -10 -9 0 -24 10 -35 23 -18 20
-20 20 -23 4 -2 -10 1 -24 7 -31 6 -7 9 -24 7 -37 -3 -13 -5 -30 -5 -36 -2
-25 -21 -12 -47 32 -28 48 -33 52 -52 33 -10 -10 -14 -8 -18 10 -4 12 -12 22
-19 22 -6 0 -20 9 -30 20 -10 11 -21 18 -24 15 -4 -2 -23 9 -42 26 -19 16 -36
29 -39 30 -3 0 -12 2 -20 4 -8 2 -26 6 -40 8 -14 3 -27 6 -30 7 -3 1 -9 3 -15
5 -5 1 -12 3 -15 5 -11 6 -136 9 -150 3 -8 -3 -26 -7 -40 -8 -34 -3 -78 -15
-109 -31 -14 -8 -33 -14 -41 -14 -9 0 -21 -5 -27 -11 -13 -13 -47 -4 -39 9 2
4 -5 9 -16 9 -19 2 -20 1 -6 -14 14 -14 14 -17 -4 -38 -15 -17 -28 -22 -54
-20 -19 2 -35 -1 -35 -6 -3 -19 -5 -24 -12 -37 -5 -7 -12 -10 -16 -7 -5 2 -19
-7 -32 -21 -16 -18 -19 -25 -9 -23 8 1 28 -3 45 -10 25 -10 31 -10 41 3 6 9
13 13 16 10 6 -6 74 31 103 57 15 13 88 49 99 49 0 0 1 -33 1 -72 0 -133 60
-193 210 -214 83 -11 115 -6 154 24 42 31 91 82 91 93 0 5 4 9 9 9 5 0 8 -14
6 -31 -4 -27 -2 -29 11 -18 8 7 13 18 10 26 -4 9 3 13 19 13 22 0 25 -4 25
-38 0 -30 -5 -42 -22 -51 -23 -11 -23 -11 2 -5 36 9 82 6 94 -6 7 -7 5 -10 -5
-10 -7 0 4 -11 25 -24 36 -21 37 -24 20 -34 -16 -10 -17 -13 -4 -21 8 -5 18
-7 24 -4 5 4 7 -1 3 -11 -5 -13 -3 -17 11 -14 10 2 16 11 14 21 -2 9 2 17 7
17 5 0 9 13 9 28 -1 15 4 37 10 49 12 22 49 37 58 22 3 -5 13 -9 22 -9 12 0
13 3 4 12 -8 8 -8 15 -1 24 8 9 2 20 -20 40 -20 18 -28 31 -22 38 13 16 13 18
2 48 -15 40 3 43 39 6 63 -63 166 -99 187 -65 4 6 0 8 -10 4 -9 -3 -27 3 -40
14 -14 10 -30 19 -35 19 -6 0 -22 14 -35 32 -28 35 -24 43 27 70 23 12 25 16
12 21 -9 4 -16 2 -16 -4 0 -6 -5 -7 -12 -3 -6 4 -8 3 -5 -3 4 -6 -3 -10 -17
-10 -17 0 -23 4 -19 13 3 10 -3 14 -20 14 -28 0 -60 30 -39 37 21 8 13 20 -23
37 -19 9 -35 21 -35 25 0 5 -11 12 -25 15 -23 6 -31 26 -26 58 2 14 -23 4 -41
-15 -16 -17 -19 -18 -40 -3 -12 9 -19 16 -15 16 5 0 1 7 -8 16 -12 13 -19 14
-28 5 -16 -16 -37 -14 -37 4 0 8 -7 15 -16 15 -9 0 -12 5 -8 12 5 7 3 8 -7 3
-19 -12 -51 -14 -69 -5 -8 4 -37 10 -64 13 -27 4 -54 11 -59 16 -6 6 -2 8 13
4 17 -5 21 -3 15 6 -5 10 -2 11 14 6 12 -4 21 -2 21 4 0 8 7 7 21 -1 18 -11
23 -11 27 1 4 11 6 11 13 0 5 -8 9 -9 9 -3 0 8 15 9 51 2 28 -5 58 -7 66 -4 8
3 12 2 9 -3 -7 -11 45 -22 73 -14 12 3 21 1 21 -6 0 -6 -6 -11 -14 -11 -8 0
-16 -7 -19 -14 -5 -11 5 -17 38 -21 24 -4 49 -4 56 1 9 5 10 2 6 -9 -8 -21 9
-22 21 -2 7 13 12 11 30 -10 12 -14 18 -25 12 -25 -5 0 -13 8 -19 17 -5 10
-13 14 -18 10 -4 -5 1 -15 12 -23 20 -15 40 -14 40 2 1 24 19 36 47 30 26 -5
29 -4 18 8 -8 11 -18 12 -36 5 -34 -12 -36 -12 -23 9 14 22 78 27 86 7 2 -8
18 -17 34 -20 15 -4 27 -12 26 -18 -1 -6 6 -13 17 -15 13 -3 16 0 11 9 -6 9
-3 11 9 6 10 -4 23 -7 29 -8 7 0 1 -5 -13 -11 -23 -10 -23 -11 -5 -15 11 -3
24 -9 30 -14 5 -5 18 -9 29 -9 30 0 10 -12 -31 -19 -29 -5 -37 -11 -35 -24 2
-9 -2 -17 -8 -17 -6 0 -9 -4 -5 -9 3 -5 -4 -13 -16 -16 -16 -6 -18 -9 -8 -15
7 -5 17 -6 21 -4 4 3 8 0 8 -6 0 -12 19 -10 73 6 11 4 17 0 17 -10 0 -9 -9
-16 -21 -16 -11 0 -18 -4 -15 -9 4 -5 -6 -8 -21 -5 -29 4 -83 -30 -68 -44 4
-4 10 -2 12 5 3 8 13 9 35 2 17 -5 36 -5 42 0 6 4 36 9 66 9 54 2 55 2 28 -13
-30 -17 -38 -31 -12 -21 10 4 14 1 12 -6 -6 -17 -54 -17 -50 0 1 8 -2 11 -7 7
-6 -3 -7 -13 -4 -22 5 -12 2 -15 -10 -10 -15 5 -16 3 -7 -13 10 -19 11 -19 53
2 23 12 49 30 58 40 9 10 21 18 27 18 6 0 9 7 6 15 -4 9 0 15 10 15 18 0 12
-24 -12 -52 -14 -16 -13 -18 9 -17 13 0 46 4 73 8 48 8 49 8 25 -9 l-23 -18
25 -4 c64 -9 99 13 64 42 -13 11 -12 16 12 37 16 14 22 22 16 19 -9 -5 -13 0
-13 12 0 11 7 22 15 26 14 5 17 1 19 -34 2 -25 31 -22 46 5 10 19 11 28 2 37
-7 7 -12 23 -12 36 0 22 -1 22 -22 8 -12 -9 -32 -16 -43 -16 -18 1 -16 4 10
26 18 15 39 23 52 21 13 -2 24 2 28 11 4 11 8 12 20 2 12 -10 15 -7 21 14 3
14 10 26 15 26 8 0 12 -15 7 -23 -2 -2 3 -11 10 -19 8 -11 10 -39 6 -99 -8
-122 -8 -185 1 -199 11 -18 12 -269 1 -262 -5 3 -7 -5 -4 -16 4 -12 2 -25 -3
-28 -5 -3 -7 -22 -5 -42 5 -30 4 -32 -3 -12 -5 14 -9 20 -10 13 -1 -6 -3 -18
-6 -25 -3 -8 5 -30 19 -50 13 -20 22 -39 18 -42 -3 -3 -6 -16 -8 -29 -1 -12
-5 -33 -9 -47 -4 -14 -10 -46 -14 -72 -7 -43 -6 -46 11 -37 9 5 22 27 28 49
12 46 22 50 38 15 9 -18 19 -25 41 -25 28 0 30 2 37 58 9 67 7 81 -14 105 -15
17 -17 16 -48 -14 l-32 -31 4 186 c5 241 12 269 83 306 20 10 33 9 78 -6 36
-13 56 -15 61 -8 4 6 21 17 37 25 54 27 79 43 141 92 34 26 72 47 84 47 61 0
145 -121 138 -200 l-3 -35 -25 27 c-88 93 -182 101 -282 25 -19 -15 -38 -27
-41 -27 -7 0 -77 -68 -77 -75 0 -2 29 10 65 27 61 28 67 29 89 15 21 -14 66
-93 66 -117 0 -5 5 -10 10 -10 6 0 10 5 10 10 0 17 51 11 91 -12 21 -12 40
-20 42 -17 1 2 12 22 24 44 12 22 26 41 32 43 5 2 12 -21 16 -51 8 -60 -15
-160 -61 -269 -14 -33 -58 -157 -99 -274 -83 -242 -106 -288 -167 -330 -51
-34 -58 -42 -58 -69 0 -13 3 -16 8 -8 11 18 60 34 67 22 7 -11 -18 -103 -45
-163 -9 -23 -29 -78 -44 -124 -14 -46 -37 -98 -51 -116 -14 -18 -25 -38 -25
-43 0 -14 -72 -78 -109 -98 -17 -8 -42 -16 -55 -17 -22 -2 -27 -9 -35 -53 -6
-27 -10 -61 -10 -75 -1 -47 -9 -119 -16 -147 -5 -15 -7 -35 -6 -44 1 -9 -4
-16 -11 -16 -7 0 -21 -4 -30 -8 -13 -5 -18 -2 -18 9 0 25 4 31 18 30 6 -1 12
-1 12 0 -2 16 -29 76 -30 64 0 -9 -5 -18 -11 -20 -6 -2 -13 -18 -15 -36 -2
-22 0 -31 7 -26 8 5 9 -6 4 -37 -9 -53 -24 -85 -25 -54 -1 18 -2 17 -11 -4 -5
-13 -11 -42 -14 -65 -2 -22 -4 -43 -5 -46 0 -3 -4 1 -9 9 -7 10 -11 5 -16 -18
-6 -30 -25 -53 -25 -31 0 6 -4 9 -9 6 -4 -3 -7 24 -6 60 1 35 -2 67 -7 70 -4
3 -8 21 -8 40 0 32 -2 34 -20 24 -14 -7 -20 -20 -18 -38 1 -15 -2 -38 -6 -51
-5 -14 -4 -21 1 -18 11 7 10 -74 -1 -92 -4 -6 -1 -11 6 -11 8 0 6 -5 -4 -11
-10 -5 -18 -21 -18 -34 0 -28 -27 -83 -53 -107 -15 -13 -16 -21 -7 -37 7 -14
7 -21 0 -21 -5 0 -10 -13 -10 -30 0 -16 -4 -30 -10 -30 -5 0 -10 -6 -10 -14 0
-7 -10 -26 -22 -42 -13 -15 -17 -25 -10 -20 16 9 15 1 -2 -33 -16 -31 -51 -64
-41 -40 4 10 -3 14 -20 14 -22 0 -23 -2 -10 -12 11 -7 12 -13 6 -18 -6 -3 -8
-17 -5 -31 5 -18 2 -24 -10 -24 -9 0 -16 -5 -16 -11 0 -5 -4 -7 -10 -4 -6 4
-10 -5 -10 -19 0 -17 -6 -26 -16 -26 -8 0 -12 5 -9 11 4 6 -3 5 -14 -3 -17
-10 -18 -14 -6 -16 17 -4 19 -11 6 -31 -6 -9 -5 -21 2 -32 9 -15 8 -21 -8 -33
-10 -7 -26 -11 -33 -8 -12 4 -12 7 2 17 17 13 22 35 7 35 -4 0 -6 11 -4 24 6
29 -10 41 -27 21 -9 -11 -10 -18 -1 -29 12 -14 5 -46 -10 -46 -5 0 -9 -6 -9
-14 0 -7 -6 -19 -14 -25 -10 -9 -15 -8 -20 4 -8 21 -26 19 -26 -2 0 -15 2 -16
10 -3 9 13 10 13 11 0 1 -8 3 -19 3 -25 1 -5 4 -15 8 -20 10 -16 -31 -60 -44
-47 -8 8 -21 -3 -49 -38 -44 -56 -48 -65 -18 -50 19 11 20 10 9 -10 -6 -11
-15 -18 -19 -15 -5 2 -14 -1 -20 -9 -9 -11 -9 -15 1 -20 7 -3 3 -3 -9 -1 -15
4 -26 -1 -37 -16 -8 -12 -26 -23 -39 -23 -22 -1 -23 1 -13 26 8 22 15 27 36
23 18 -3 29 1 38 15 10 17 9 18 -6 13 -9 -3 -23 -10 -29 -16 -9 -6 -13 -6 -13
0 0 6 -12 8 -26 5 -17 -3 -22 -7 -14 -12 7 -4 9 -13 5 -20 -5 -8 -10 -9 -18
-1 -16 16 -24 13 -30 -10 -4 -14 -11 -20 -21 -16 -8 3 -18 2 -21 -3 -3 -4 1
-11 7 -13 9 -4 10 -6 1 -6 -6 -1 -14 3 -18 8 -3 5 -17 -2 -31 -16 l-26 -26
-19 24 c-21 28 -20 28 16 35 42 8 97 74 61 74 -8 0 -18 -5 -22 -12 -5 -7 -2
-8 7 -3 8 5 11 4 6 0 -13 -14 -50 -16 -58 -3 -6 9 -11 9 -23 -1 -9 -7 -13 -18
-9 -24 3 -6 1 -7 -5 -3 -7 4 -12 3 -12 -3 0 -5 -10 -11 -22 -13 -13 -2 -22 -9
-20 -16 2 -10 -2 -10 -19 -1 -17 8 -20 8 -14 -1 5 -9 1 -10 -15 -5 -16 5 -20
4 -15 -4 4 -7 1 -18 -5 -26 -7 -8 -10 -22 -6 -30 4 -11 2 -14 -7 -8 -6 4 -16
8 -22 8 -5 0 -9 8 -9 18 1 9 -2 17 -7 17 -5 0 -9 -7 -9 -15 0 -8 -4 -15 -10
-15 -5 0 -10 -9 -10 -20 0 -16 -4 -19 -17 -12 -21 11 -46 5 -37 -9 3 -5 0 -8
-8 -7 -7 2 -12 -3 -10 -10 1 -8 -2 -11 -8 -7 -5 3 -10 -1 -10 -10 0 -9 -4 -13
-10 -10 -5 3 -10 -1 -10 -9 0 -8 -4 -17 -8 -20 -5 -3 -7 12 -6 32 3 29 1 33
-7 19 -6 -9 -8 -21 -5 -25 3 -5 -7 -8 -23 -7 -26 2 -27 0 -24 -36 5 -45 -9
-57 -37 -29 -11 11 -20 17 -21 13 -3 -31 -11 -47 -33 -70 -27 -26 -33 -43 -17
-43 5 0 12 9 16 20 4 13 14 19 30 18 13 -1 21 -6 19 -10 -3 -5 -10 -6 -15 -3
-5 4 -9 1 -9 -4 0 -6 5 -11 12 -11 16 0 4 -10 -18 -15 -60 -12 -88 -15 -69 -6
18 9 18 10 2 10 -12 1 -16 6 -11 14 5 9 4 9 -6 0 -7 -6 -18 -9 -25 -7 -7 3
-13 -1 -12 -8 1 -35 -4 -47 -18 -42 -8 4 -17 -1 -21 -10 -6 -16 -54 -23 -54
-8 0 17 13 22 27 10 12 -10 12 -7 2 15 l-12 27 -15 -31 c-13 -26 -19 -30 -44
-25 -16 3 -28 1 -28 -5 0 -6 -4 -8 -9 -5 -5 3 -11 -3 -14 -14 -4 -14 -10 -18
-23 -13 -12 5 -15 3 -9 -6 6 -10 3 -11 -14 -2 -16 9 -21 9 -19 0 2 -6 -8 -13
-21 -15 -28 -5 -36 -11 -36 -27 0 -7 -17 -11 -45 -10 -35 1 -49 -3 -65 -21
-24 -27 -64 -31 -81 -8 -9 11 -13 12 -14 5 0 -7 -7 -13 -16 -13 -9 0 -13 5 -9
13 4 6 -2 2 -13 -10 -13 -14 -23 -18 -29 -12 -6 6 -21 11 -34 13 -13 1 -32 6
-42 10 -9 5 -25 5 -35 2 -14 -5 -14 -3 2 9 13 10 23 12 30 5 12 -12 26 -13 26
-2 0 4 -11 12 -25 19 -14 6 -25 7 -25 3 0 -4 -9 -6 -20 -3 -12 3 -20 2 -19 -3
3 -20 -2 -35 -11 -29 -5 3 -6 13 -3 22 4 11 2 14 -8 11 -8 -3 -13 -10 -12 -16
1 -5 -6 -8 -17 -5 -11 3 -18 8 -16 12 3 4 -4 12 -14 19 -12 7 -21 8 -25 2 -3
-6 2 -10 12 -10 14 0 15 -2 4 -9 -15 -10 -43 8 -34 22 2 4 1 7 -4 8 -4 0 -19
2 -33 4 -14 1 -28 1 -32 -1 -13 -8 13 -61 35 -72 13 -6 16 -11 7 -10 -22 0
-67 16 -50 17 13 1 13 3 1 10 -17 11 -41 -8 -34 -26 3 -9 -4 -13 -22 -13 -20
0 -26 4 -21 15 4 10 -1 15 -14 15 -11 0 -20 -6 -20 -12 0 -9 -3 -8 -10 2 -7
12 -11 10 -19 -10 -7 -18 -10 -20 -10 -7 -1 9 -8 17 -16 17 -10 0 -15 7 -13
17 2 10 -3 18 -9 19 -7 1 -16 3 -20 4 -5 1 -12 2 -16 1 -5 -1 -6 3 -3 8 4 5 2
13 -4 16 -8 5 -8 11 0 20 8 9 4 12 -17 9 -15 -1 -33 -10 -39 -19 -11 -15 -13
-15 -24 4 -6 12 -15 19 -21 16 -5 -4 -9 -1 -9 5 0 6 -11 15 -24 21 -14 7 -22
17 -20 23 3 7 -7 25 -21 40 -14 15 -32 40 -40 57 -9 16 -20 29 -25 29 -15 0
-12 -11 8 -26 16 -13 16 -14 -2 -7 -15 5 -17 3 -11 -7 6 -10 4 -12 -8 -7 -10
4 -17 2 -17 -5 0 -6 -6 -5 -17 3 -15 12 -16 12 -10 -5 6 -16 5 -17 -7 -7 -8 7
-12 20 -10 29 5 15 4 15 -9 -1 -13 -16 -16 -16 -28 -1 -10 13 -10 17 2 25 10
7 6 8 -12 4 -19 -5 -28 -2 -32 9 -4 9 -13 16 -22 16 -8 0 -22 17 -31 38 -12
27 -18 32 -21 20 -3 -10 -9 -18 -14 -18 -5 0 -9 -5 -9 -11 0 -6 6 -9 14 -6 16
6 36 -11 36 -30 0 -7 -5 -13 -11 -13 -5 0 -7 5 -4 10 8 13 -8 13 -21 0 -6 -6
-14 6 -23 36 -10 32 -16 42 -22 32 -7 -10 -9 -9 -9 5 0 10 -8 17 -20 17 -13 0
-18 -5 -14 -15 4 -8 10 -15 16 -15 5 0 6 -5 3 -10 -10 -16 -23 -3 -30 30 -4
20 -11 27 -21 23 -9 -3 -14 1 -14 12 0 11 -5 15 -14 12 -10 -4 -13 -1 -10 7 3
7 -2 16 -10 19 -22 9 -20 29 2 25 10 -2 16 2 14 11 -2 9 4 12 18 8 26 -7 26
10 0 18 -11 4 -18 9 -16 13 2 4 -8 16 -23 27 -25 18 -25 18 -11 0 8 -10 10
-16 3 -12 -6 4 -13 1 -16 -5 -3 -7 -5 -4 -5 7 1 11 -3 28 -7 38 -5 13 -3 16 8
11 12 -4 15 -1 12 15 -6 30 -14 41 -32 41 -13 0 -13 -3 -3 -15 8 -10 9 -15 2
-15 -6 0 -16 10 -23 21 -9 17 -8 20 2 14 9 -6 10 -3 5 10 -6 16 -4 16 11 4 10
-7 7 -1 -6 14 -26 28 -23 49 4 27 13 -11 14 -10 9 4 -3 9 -9 16 -13 16 -11 0
-51 40 -51 51 0 6 11 -3 24 -18 24 -27 25 -27 23 -6 -1 12 -7 25 -15 28 -8 3
-11 12 -7 24 3 12 0 21 -10 25 -9 3 -13 11 -9 17 4 8 3 9 -5 5 -7 -5 -22 3
-36 18 -13 14 -20 26 -15 26 6 0 10 5 10 11 0 6 -7 9 -15 5 -8 -3 -15 -1 -15
5 0 6 -4 7 -10 4 -6 -3 -7 1 -4 9 4 11 0 16 -10 16 -9 0 -16 7 -16 15 0 8 -3
14 -7 13 -12 -2 -47 14 -55 26 -4 6 -1 17 5 25 9 12 9 13 0 7 -7 -4 -13 -2
-13 3 0 6 -9 11 -21 11 -15 0 -19 -5 -15 -16 3 -8 2 -12 -4 -9 -6 3 -10 12
-10 20 0 18 -57 58 -70 50 -5 -3 -10 -2 -10 3 0 4 -9 18 -21 31 -28 29 -19 37
14 11 14 -11 29 -20 34 -20 4 0 -1 8 -12 16 -14 11 -16 18 -8 21 10 3 10 10 2
25 -6 11 -13 17 -17 14 -3 -3 -17 1 -31 10 l-26 15 24 -20 c12 -12 27 -18 32
-15 5 3 9 -2 9 -10 0 -14 -3 -14 -20 -4 -17 11 -22 10 -29 0 -6 -10 -13 -3
-25 22 -9 20 -24 36 -32 36 -9 0 -12 -5 -8 -12 4 -7 -1 -5 -11 4 -12 11 -15
23 -10 35 7 17 8 17 15 -2 l9 -20 0 20 c1 15 3 17 10 6 7 -11 10 -9 15 7 4 13
-1 37 -14 61 -23 46 -40 54 -32 16 3 -20 0 -25 -17 -25 -12 0 -20 4 -17 8 2 4
0 14 -5 22 -13 21 -29 -4 -21 -34 3 -11 2 -18 -2 -15 -17 16 -25 205 -8 202 6
-2 8 24 6 70 -3 40 -5 80 -5 90 0 9 -4 17 -10 17 -5 0 -10 -24 -11 -52 -1 -29
-2 -71 -4 -93 -1 -22 -3 -83 -3 -135 -1 -67 -4 -91 -11 -80 -8 12 -12 13 -19
2 -7 -11 -9 -11 -14 2 -4 9 -2 16 3 16 6 0 10 5 10 11 0 5 -4 7 -10 4 -10 -6
-13 35 -11 120 1 27 -1 36 -7 27 -5 -8 -13 -14 -18 -15 -12 -3 -12 -30 1 -39
6 -5 4 -14 -7 -25 -17 -16 -18 -16 -18 17 0 26 -3 31 -10 20 -7 -11 -10 1 -10
42 0 36 5 58 13 61 9 4 9 7 0 14 -6 5 -13 29 -15 53 -3 48 -19 57 -30 18 -5
-20 -6 -18 -7 10 -1 17 -6 32 -12 32 -5 0 -7 5 -4 10 4 6 13 7 24 1 13 -8 18
-6 18 6 0 11 -8 14 -32 10 -30 -5 -31 -4 -27 31 5 35 4 36 -14 22 -11 -8 -16
-11 -12 -6 4 4 3 18 -2 31 -10 25 -3 65 11 65 5 0 9 -7 9 -15 0 -13 4 -14 20
-5 11 6 18 16 14 21 -3 6 2 9 12 7 11 -2 18 2 17 9 -2 7 4 10 13 6 13 -5 15
-1 9 18 -4 13 -12 29 -19 34 -10 8 -13 27 -7 38 1 1 3 30 5 64 3 54 2 61 -13
55 -14 -5 -14 -4 -2 11 9 12 10 17 2 17 -7 0 -9 4 -6 10 3 5 1 19 -5 30 -10
19 -4 25 23 21 4 0 7 4 7 9 0 6 5 10 11 10 5 0 7 -5 3 -11 -4 -7 -1 -10 7 -7
8 3 14 12 14 21 0 8 4 19 8 23 4 4 -3 17 -15 29 -33 29 -63 86 -38 70 6 -3 10
-2 10 4 0 5 -9 13 -20 16 -20 6 -27 29 -12 39 5 3 8 15 6 28 -1 13 -3 26 -3
31 -1 4 -5 7 -10 7 -5 0 -7 -10 -3 -22 4 -15 2 -19 -7 -13 -7 4 -10 17 -7 30
3 13 2 27 -4 30 -7 4 -7 13 0 26 7 13 7 19 0 19 -5 0 -10 -5 -10 -11 0 -5 -4
-8 -9 -4 -6 3 -9 23 -9 45 0 30 4 40 17 40 16 0 -16 23 -51 36 -15 5 -15 7 0
25 16 18 17 18 24 2 5 -15 7 -15 7 -2 1 9 -10 38 -25 64 -20 38 -22 50 -12 57
9 7 4 8 -15 5 -18 -3 -26 0 -24 7 3 6 10 10 16 9 6 -2 11 8 11 22 0 17 6 25
18 25 13 0 14 2 3 9 -10 7 -8 12 9 24 12 8 19 20 16 25 -3 6 0 13 6 15 7 3 -2
6 -19 6 -18 1 -33 -3 -33 -9 0 -5 -4 -10 -9 -10 -15 0 -7 34 12 48 15 12 16
15 2 28 -20 20 -19 30 5 47 l21 14 -22 6 c-16 4 -20 11 -16 26 3 12 1 19 -4
15 -12 -7 -11 20 1 32 12 12 3 44 -11 44 -5 0 -9 7 -9 15 0 8 5 15 10 15 6 0
10 -5 10 -11 0 -5 5 -7 11 -4 6 5 4 11 -7 19 -10 8 -17 25 -16 45 0 20 -5 34
-14 38 -13 5 -12 9 2 31 16 24 16 25 -2 18 -10 -4 -15 -4 -12 0 4 4 3 15 -3
25 -6 13 -6 19 1 19 5 0 10 7 10 16 0 8 -4 12 -10 9 -19 -12 -10 11 10 25 11
8 20 23 20 34 0 10 8 25 18 32 16 13 16 14 -2 8 -16 -6 -17 -5 -6 15 6 13 18
20 25 17 8 -3 17 -1 20 4 4 6 0 10 -7 10 -10 0 -10 2 1 9 8 5 19 7 25 5 7 -3
20 2 31 10 17 13 17 15 4 16 -9 0 -20 7 -23 16 -4 12 -2 15 9 10 10 -4 15 1
15 14 0 13 7 20 20 20 11 0 20 4 20 9 0 14 -18 23 -22 11 -1 -5 -13 -7 -25 -4
-13 4 -20 10 -18 15 3 4 12 6 20 2 10 -3 15 2 15 16 0 12 -6 21 -14 21 -19 0
-28 28 -16 50 13 25 13 30 -5 30 -18 0 -19 5 -4 32 8 15 8 27 0 44 -7 16 -7
24 0 24 5 0 23 9 38 21 21 16 35 19 52 13 13 -4 26 -8 29 -9 3 0 20 -11 38
-24 26 -18 41 -22 69 -18 20 4 39 10 42 15 3 5 15 11 27 14 32 8 57 -46 52
-110 l-4 -49 37 10 c25 6 43 5 56 -2 14 -8 11 -9 -17 -5 -50 9 -27 -9 40 -32
30 -10 60 -19 65 -20 6 0 21 -5 35 -11 14 -6 45 -13 70 -16 l45 -6 -28 21
c-15 11 -25 24 -21 29 7 12 51 12 59 -1 3 -5 16 -10 28 -10 l22 -1 -23 -12
c-34 -19 -17 -27 60 -27 58 0 68 3 69 18 1 16 2 16 6 -1 4 -16 12 -17 76 -12
40 4 74 8 76 10 1 2 -2 16 -7 32 -6 15 -11 22 -11 16 -1 -18 -26 -16 -45 3
-15 14 -16 14 -16 -1 0 -14 -2 -14 -25 1 -23 15 -25 15 -19 0 5 -14 2 -15 -20
-6 -24 9 -26 7 -26 -15 0 -18 -7 -26 -26 -31 -17 -4 -29 -2 -34 7 -7 10 -11
10 -24 -1 -14 -11 -16 -10 -10 4 4 11 18 16 48 16 25 0 36 3 28 8 -7 5 -10 16
-7 25 9 21 -18 17 -45 -8 -22 -20 -26 -14 -10 14 8 17 6 17 -30 8 -46 -13 -56
-7 -40 22 9 17 8 22 -4 27 -8 3 -23 1 -32 -4 -13 -7 -24 -6 -40 5 -14 8 -32
12 -44 8 -14 -4 -20 -2 -18 7 2 7 -3 12 -9 11 -16 -4 -17 9 -1 25 8 8 5 14
-14 21 -14 5 -28 17 -32 26 -5 14 0 16 31 12 21 -2 57 -14 80 -25 53 -27 67
-28 60 -2 -3 11 -1 18 4 14 5 -3 9 0 9 5 0 6 4 11 10 11 5 0 9 -6 7 -12 -1 -7
4 -12 11 -10 7 1 25 -9 40 -24 61 -58 133 -70 246 -40 32 9 62 14 66 11 18
-11 100 122 100 163 0 6 2 12 5 12 11 0 55 -24 55 -30 0 -4 15 -22 32 -39 24
-24 39 -30 55 -26 19 4 23 1 23 -20 0 -23 2 -25 22 -14 18 10 24 8 39 -9 9
-12 20 -18 24 -14 4 4 4 -3 1 -15 -5 -17 -3 -23 8 -23 8 0 18 5 21 10 10 15
-72 107 -111 126 -19 9 -34 22 -34 28 0 6 -15 20 -32 31 -18 10 -43 29 -56 42
-13 13 -28 23 -34 23 -6 0 -8 3 -4 7 6 6 -84 54 -113 59 -7 1 -18 7 -24 13 -6
6 -24 11 -39 11 -15 0 -28 5 -28 10 0 11 -144 9 -155 -1 -3 -3 -27 -4 -54 -1
-40 3 -52 1 -70 -17 -16 -16 -21 -17 -21 -6 0 19 -10 19 -38 -1 -12 -8 -22
-12 -22 -8 0 3 -11 -1 -24 -9 -21 -14 -26 -15 -37 -1 -10 12 -8 18 9 35 12 11
22 25 22 32 0 8 -4 7 -10 -3 -5 -8 -11 -12 -14 -9 -8 8 55 70 64 64 5 -3 10 0
12 5 5 15 67 30 172 42 110 13 192 1 281 -41 35 -16 66 -27 69 -24 3 3 8 -2
12 -11 3 -9 11 -13 16 -10 6 4 8 -2 3 -15 -4 -12 -2 -21 4 -21 6 0 11 5 11 10
0 6 11 3 24 -6 16 -10 23 -22 19 -32 -4 -13 -3 -14 5 -3 11 16 32 6 32 -15 0
-9 -5 -12 -12 -8 -7 4 -8 3 -4 -5 6 -9 11 -9 22 -1 16 14 69 -19 79 -50 4 -11
9 -20 13 -20 4 0 21 -14 39 -30 32 -30 50 -39 38 -20 -3 6 -1 10 6 10 7 0 5 8
-6 20 -24 26 -16 25 36 -5 25 -14 36 -25 27 -25 -10 0 -18 -4 -18 -8 0 -12 40
-47 40 -36 0 5 6 2 13 -6 14 -18 57 -26 57 -11 0 6 5 11 11 11 11 0 43 -69 35
-77 -3 -3 1 -15 9 -26 10 -15 13 -38 9 -81 -3 -40 -1 -54 4 -41 5 11 7 26 5
33 -3 6 -1 12 4 12 6 0 15 26 22 58 7 31 16 64 20 72 3 8 4 40 1 71 -3 30 -2
69 1 85 3 19 0 36 -10 48 -9 11 -10 16 -3 12 17 -10 15 9 -3 24 -9 7 -14 19
-11 27 3 7 1 13 -4 13 -6 0 -10 7 -10 15 0 8 -7 15 -16 15 -14 0 -15 2 -3 17
9 10 9 14 2 10 -7 -5 -21 1 -33 13 -11 11 -25 20 -31 20 -5 0 -8 4 -5 9 3 5
-6 17 -21 27 -34 22 -62 55 -63 73 0 11 -3 11 -15 1 -9 -7 -18 -10 -22 -6 -3
3 -2 6 4 6 18 0 7 43 -18 63 -13 11 -23 23 -22 27 1 4 -16 25 -38 46 -22 21
-39 32 -37 24 2 -8 13 -23 26 -33 13 -11 21 -22 18 -24 -3 -3 4 -17 14 -31 11
-13 20 -29 20 -34 0 -15 -51 50 -55 69 -1 10 -7 17 -13 16 -6 -2 -14 6 -17 17
-3 10 -14 22 -25 25 -10 3 -36 24 -58 45 -22 22 -45 40 -51 40 -6 0 -11 4 -11
8 0 4 -19 9 -42 9 -25 1 -47 8 -54 18 -6 8 -16 15 -23 15 -6 0 -11 4 -11 9 0
5 -8 11 -17 15 -10 3 -25 9 -33 12 -13 5 -13 4 0 -6 12 -8 6 -10 -24 -5 -73
10 -82 15 -84 43 -3 38 -18 48 -32 22 -10 -19 -13 -20 -28 -7 -9 8 -25 13 -34
12 -10 -2 -20 1 -24 6 -3 5 -9 7 -14 4 -5 -3 -22 2 -37 11 l-28 18 22 -22 c12
-12 29 -22 37 -22 7 0 16 -6 19 -14 7 -17 -27 -10 -43 9 -6 8 -18 11 -26 8
-12 -5 -19 7 -15 30 0 4 -4 7 -10 7 -5 0 -7 5 -4 10 4 6 1 9 -7 8 -7 -2 -12 2
-11 9 1 6 -4 17 -13 24 -13 10 -13 8 -4 -15 13 -36 13 -41 -3 -27 -8 6 -18 7
-22 3 -5 -4 -6 -2 -2 3 3 6 -1 19 -10 30 -14 19 -14 19 -8 -8 7 -25 6 -27 -16
-18 -13 5 -23 16 -23 25 1 9 -2 13 -7 10 -5 -3 -9 1 -9 8 0 8 -3 9 -8 3 -8
-11 -37 -13 -47 -3 -5 5 -10 28 -15 78 -1 8 -6 -1 -12 -20 l-11 -35 -14 33
c-7 18 -10 38 -6 45 4 7 -1 5 -11 -3 -17 -14 -18 -12 -15 33 2 26 0 47 -4 47
-5 0 -7 18 -5 40 4 45 -6 41 -21 -10 -8 -27 -10 -28 -7 -7 2 15 0 27 -3 27 -4
0 -12 -12 -18 -27 l-12 -28 6 28 c3 15 1 27 -5 27 -5 0 -15 17 -20 38 -10 35
-11 34 -4 -13 3 -27 6 -60 5 -72 0 -13 3 -20 8 -17 5 3 9 0 9 -5 0 -6 -4 -11
-9 -11 -5 0 -13 -9 -16 -20 -8 -25 -25 -17 -25 11 0 11 -4 18 -9 14 -18 -11
-22 15 -6 44 19 38 19 47 0 31 -8 -7 -15 -20 -16 -29 0 -12 -2 -11 -9 4 -5 11
-9 14 -9 6 -1 -11 -4 -11 -18 0 -15 13 -15 12 0 -12 17 -26 14 -39 -10 -39
-16 0 -58 90 -46 99 4 3 8 13 9 21 1 11 -9 15 -35 15 -30 0 -38 -5 -55 -38
-14 -27 -23 -34 -30 -26 -8 8 -7 13 2 16 9 3 11 16 6 40 -5 27 -4 34 6 28 9
-6 9 -3 1 14 -7 12 -10 25 -7 30 3 4 8 46 11 92 8 106 23 207 35 230 6 10 10
31 10 48 0 23 9 37 35 57 19 14 33 30 30 34 -3 5 -1 10 5 12 6 2 12 14 15 27
10 53 55 92 68 59 3 -7 3 11 0 40 -4 43 -3 52 11 52 9 0 16 3 17 8 0 4 2 15 4
24 2 10 -1 20 -6 23 -10 7 -1 77 10 85 11 7 10 40 -1 40 -5 0 -2 7 6 16 9 8
16 24 16 34 0 23 20 37 30 20 5 -8 9 -7 14 5 8 21 -2 37 -17 29 -7 -4 -8 -3
-4 2 5 5 14 9 20 9 13 0 49 94 41 107 -3 4 -1 8 3 8 8 0 38 68 36 80 0 3 -4
16 -8 28 -6 22 -5 23 15 12 20 -11 21 -10 10 9 -6 12 -16 20 -23 18 -13 -2
-12 14 5 56 6 15 16 27 24 27 21 0 26 17 16 54 -9 30 -8 33 9 29 21 -6 27 13
7 19 -9 3 -8 13 4 38 9 19 14 38 12 42 -3 4 0 8 7 8 9 0 9 4 -1 15 -15 18 -3
38 17 31 11 -4 13 -2 9 9 -4 10 1 15 14 15 11 0 20 5 20 10 0 6 9 10 20 10 11
0 20 5 20 11 0 6 10 9 23 8 12 -1 42 4 67 11 63 18 122 31 143 31 9 0 17 4 17
9 0 5 24 14 53 20 61 13 92 33 84 54 -5 13 3 15 48 13 29 -2 52 1 49 5 -3 4 2
8 11 8 9 0 13 5 10 10 -4 7 3 8 20 4 21 -5 27 -3 32 15 6 24 7 25 35 10 15 -8
19 -8 14 0 -4 6 -2 11 4 11 6 0 9 4 5 9 -3 6 4 8 16 6 14 -3 19 0 16 9 -4 10
0 12 14 9 13 -4 19 0 19 11 0 18 29 27 83 23 20 -1 37 1 37 5 0 5 7 8 15 8 8
0 15 3 15 8 0 10 51 32 61 26 5 -3 9 1 9 9 0 17 68 21 88 5z m-1338 -462 c0
-3 -5 -17 -12 -33 -21 -53 -33 -117 -19 -108 5 3 13 1 16 -5 8 -13 -31 -100
-44 -100 -5 0 -7 -9 -4 -20 3 -13 -1 -22 -11 -26 -15 -6 -15 -9 6 -32 17 -19
18 -22 4 -12 -18 14 -19 13 -12 -5 9 -24 9 -23 7 -56 -1 -33 -53 -88 -81 -86
-28 2 -44 31 -26 46 8 7 12 21 9 31 -4 14 0 20 11 20 9 0 16 8 16 20 0 11 0
23 1 27 0 4 -4 9 -10 11 -6 2 -9 -3 -5 -11 3 -9 -3 -16 -16 -20 -35 -9 -34 19
1 54 27 27 30 33 16 40 -14 8 -14 12 -1 37 7 15 14 32 14 37 0 6 9 16 21 23
14 9 19 20 16 33 -3 10 -1 22 4 25 5 3 9 12 9 20 0 16 68 94 82 94 4 0 8 -2 8
-4z m-138 -518 c-6 -6 -15 -8 -19 -4 -4 4 -1 11 7 16 19 12 27 3 12 -12z m-37
-287 c-3 -6 -11 -11 -17 -11 -6 0 -6 6 2 15 14 17 26 13 15 -4z m58 -73 c-2
-25 -1 -28 5 -13 8 17 10 15 15 -13 7 -34 -6 -82 -22 -82 -6 0 -8 7 -5 15 4 8
1 15 -5 15 -6 0 -12 -7 -12 -15 -1 -8 -3 -19 -4 -25 -1 -5 -3 -14 -4 -20 0 -5
-6 -10 -12 -10 -13 0 -2 73 12 78 5 2 9 8 9 13 0 6 -4 8 -9 4 -18 -11 -8 40
12 63 11 12 21 22 22 22 1 0 0 -15 -2 -32z m64 -4 c-9 -9 -28 6 -21 18 4 6 10
6 17 -1 6 -6 8 -13 4 -17z m-81 -696 c-4 -20 -3 -26 2 -15 6 15 12 8 30 -35
23 -56 29 -104 12 -93 -6 4 -19 -4 -30 -17 -12 -15 -18 -18 -18 -8 2 32 -2 50
-12 50 -5 0 -10 -12 -10 -27 -1 -27 -1 -27 -15 -9 -21 27 -20 135 1 164 24 35
47 29 40 -10z m-79 -95 c-3 -10 -5 -4 -5 12 0 17 2 24 5 18 2 -7 2 -21 0 -30z
m313 -25 c0 -18 -2 -20 -9 -8 -6 8 -7 18 -5 22 9 14 14 9 14 -14z m-90 -42 c0
-12 -5 -7 -19 24 -11 24 -11 24 3 6 9 -11 16 -24 16 -30z m127 -28 c-3 -8 -6
-5 -6 6 -1 11 2 17 5 13 3 -3 4 -12 1 -19z m-224 -3 c-3 -9 -8 -14 -10 -11 -3
3 -2 9 2 15 9 16 15 13 8 -4z m421 -117 c-3 -4 -9 -8 -15 -8 -5 0 -9 4 -9 8 0
5 7 9 15 9 8 0 12 -4 9 -9z m273 -50 c-3 -7 -5 -2 -5 12 0 14 2 19 5 13 2 -7
2 -19 0 -25z m3443 22 c0 -5 -4 -10 -10 -10 -5 0 -10 5 -10 10 0 6 5 10 10 10
6 0 10 -4 10 -10z m-30 -61 c0 -4 -8 -6 -17 -2 -15 5 -14 3 2 -10 16 -13 18
-18 8 -28 -7 -7 -13 -25 -13 -40 0 -15 -7 -34 -15 -43 -8 -8 -15 -19 -15 -25
0 -6 -4 -11 -10 -11 -5 0 -10 23 -10 51 0 28 4 48 9 45 14 -9 20 16 9 37 -7
14 -5 22 8 32 19 13 44 10 44 -6z m-1174 -144 c-19 -14 -18 -15 10 -16 18 -1
22 -3 11 -6 -10 -3 -26 -2 -35 2 -16 6 -15 8 2 21 11 8 22 14 25 14 3 0 -3 -7
-13 -15z m819 -76 c5 -5 -5 -4 -23 2 -17 6 -32 13 -32 16 0 7 43 -8 55 -18z
m102 5 c-3 -3 -12 -4 -19 -1 -8 3 -5 6 6 6 11 1 17 -2 13 -5z m27 -53 c4 -5
-3 -7 -14 -4 -23 6 -26 13 -6 13 8 0 17 -4 20 -9z m-2624 -16 c7 -9 8 -15 2
-15 -5 0 -12 7 -16 15 -3 8 -4 15 -2 15 2 0 9 -7 16 -15z m-797 -18 c9 -3 17
-3 17 2 0 11 46 20 57 12 24 -18 9 -38 -47 -63 -46 -21 -66 -25 -88 -18 -34 9
-84 2 -76 -11 6 -11 -4 -10 -31 1 -17 7 -17 9 -2 9 9 1 17 8 17 16 0 8 7 15
16 15 8 0 12 5 9 10 -4 6 7 13 24 16 17 4 31 11 31 17 0 7 4 7 12 -1 17 -17
28 -15 28 6 0 10 3 13 8 6 4 -6 15 -13 25 -17z m3447 13 c0 -5 -5 -10 -11 -10
-5 0 -7 5 -4 10 3 6 8 10 11 10 2 0 4 -4 4 -10z m-1550 -10 c-8 -5 -19 -10
-25 -10 -5 0 -3 5 5 10 8 5 20 10 25 10 6 0 3 -5 -5 -10z m-1775 -10 c3 -5 -1
-10 -9 -10 -9 0 -16 5 -16 10 0 6 4 10 9 10 6 0 13 -4 16 -10z m3299 -6 c8 -3
12 -12 9 -21 -4 -10 -2 -14 5 -9 6 3 13 2 17 -4 3 -6 -4 -9 -17 -9 -13 1 -32
-2 -42 -6 -13 -6 -17 -5 -13 2 4 6 2 13 -4 15 -14 5 0 38 16 38 7 0 20 -3 29
-6z m-3254 -45 c0 -4 -9 -7 -20 -6 -11 1 -20 4 -20 8 0 3 -18 4 -41 2 -24 -3
-39 0 -35 5 9 16 58 24 69 13 17 -17 27 -13 21 7 -5 14 -3 14 10 -2 9 -11 16
-23 16 -27z m3278 -21 c-6 -18 -28 -21 -28 -4 0 9 7 16 16 16 9 0 14 -5 12
-12z m72 -7 c0 -17 -18 -21 -24 -6 -3 9 0 15 9 15 8 0 15 -4 15 -9z m-36 -16
c3 -9 0 -15 -9 -15 -8 0 -15 7 -15 15 0 8 4 15 9 15 5 0 11 -7 15 -15z m-3627
-102 c0 -8 -6 -9 -19 -2 -10 5 -18 11 -18 12 0 2 8 3 18 3 10 0 19 -6 19 -13z
m3028 -4 c-3 -4 -12 -6 -20 -3 -8 4 -13 10 -10 15 3 4 12 6 20 3 8 -4 13 -10
10 -15z m153 6 c3 -3 -22 -5 -56 -5 -34 0 -62 4 -62 9 0 9 108 6 118 -4z
m-218 -29 c0 -3 -4 -8 -10 -11 -5 -3 -10 -1 -10 4 0 6 5 11 10 11 6 0 10 -2
10 -4z m293 -3 c-7 -2 -21 -2 -30 0 -10 3 -4 5 12 5 17 0 24 -2 18 -5z m-3258
-63 c-10 -11 -20 -18 -23 -15 -7 6 18 35 31 35 5 0 2 -9 -8 -20z m3765 -14 c0
-8 -9 -16 -20 -19 -11 -3 -18 -2 -17 1 2 4 7 15 10 25 7 20 27 14 27 -7z
m-3307 -3 c4 -2 2 -13 -3 -24 -13 -23 -7 -25 14 -3 15 14 16 14 16 -1 0 -9 4
-14 9 -11 5 4 7 -3 4 -14 -6 -24 -7 -24 -65 -4 l-46 15 16 29 c15 26 26 28 55
13z m-86 -25 c-3 -7 -5 -2 -5 12 0 14 2 19 5 13 2 -7 2 -19 0 -25z m-445 0
c-7 -7 -12 -8 -12 -2 0 14 12 26 19 19 2 -3 -1 -11 -7 -17z m2063 -26 c-3 -3
-11 0 -18 7 -9 10 -8 11 6 5 10 -3 15 -9 12 -12z m-1090 -12 c16 -17 16 -20 3
-15 -9 4 -19 13 -22 21 -7 19 -2 18 19 -6z m-1135 -24 c0 -3 -4 -8 -10 -11 -5
-3 -10 -1 -10 4 0 6 5 11 10 11 6 0 10 -2 10 -4z m3947 -22 c-3 -3 -12 -4 -19
-1 -8 3 -5 6 6 6 11 1 17 -2 13 -5z m-1196 -29 c9 6 11 3 5 -10 -5 -14 -4 -16
7 -7 8 7 17 9 20 5 4 -3 7 -1 7 5 0 25 18 10 24 -20 5 -24 9 -29 18 -20 18 18
28 15 28 -8 0 -24 -7 -25 -82 -4 -55 16 -58 18 -58 48 0 21 3 27 9 17 5 -8 14
-10 22 -6z m-2514 -161 c-3 -3 -12 -4 -19 -1 -8 3 -5 6 6 6 11 1 17 -2 13 -5z
m-985 -70 c4 -22 16 -57 26 -79 11 -22 18 -43 16 -47 -3 -5 -7 -18 -9 -29 -3
-12 -6 -22 -7 -23 -57 -34 -58 -36 -44 -59 8 -12 12 -31 10 -42 -2 -15 6 -26
31 -40 20 -10 33 -20 30 -23 -2 -3 8 -16 23 -30 24 -23 27 -32 25 -81 -3 -59
-18 -81 -56 -81 -23 0 -79 45 -69 55 4 5 1 5 -6 1 -7 -4 -10 -11 -7 -16 7 -11
-31 -84 -52 -101 -17 -15 -24 -8 -71 71 -26 43 -27 52 -28 188 -1 120 1 146
16 165 9 12 24 46 34 76 16 49 52 117 80 147 18 21 50 -8 58 -52z m1135 60
c-3 -3 -12 -4 -19 -1 -8 3 -5 6 6 6 11 1 17 -2 13 -5z m-1394 -19 c4 -8 2 -17
-3 -20 -6 -4 -10 3 -10 14 0 25 6 27 13 6z m1257 9 c0 -4 -38 -44 -42 -44 -4
0 -3 38 1 47 1 2 41 0 41 -3z m-1211 -105 c15 -17 19 -32 16 -65 -4 -46 -11
-64 -25 -64 -13 0 -34 133 -22 144 8 9 9 8 31 -15z m267 -600 c21 -42 25 -60
19 -95 -7 -47 -32 -66 -51 -39 -10 14 -12 13 -17 -6 -4 -16 -9 -19 -22 -11
-14 7 -17 26 -19 91 -2 73 0 84 18 97 33 23 44 17 72 -37z m-30 -215 c11 -31
10 -35 -3 -30 -10 4 -13 2 -10 -8 4 -10 0 -12 -15 -8 -15 4 -17 7 -6 13 7 5 9
9 4 9 -5 0 -4 6 2 13 6 7 8 24 5 38 -9 35 9 15 23 -27z m-1 -78 c30 -30 23
-61 -15 -75 -23 -8 -31 -6 -45 9 -11 12 -13 20 -5 25 6 3 10 12 9 18 -6 52 17
62 56 23z m390 -96 c-3 -5 -12 -10 -18 -10 -7 0 -6 4 3 10 19 12 23 12 15 0z
m93 -425 c-3 -3 -9 2 -12 12 -6 14 -5 15 5 6 7 -7 10 -15 7 -18z m-4 -221 c3
-8 2 -12 -4 -9 -6 3 -10 10 -10 16 0 14 7 11 14 -7z m-67 -76 c-3 -8 -6 -5 -6
6 -1 11 2 17 5 13 3 -3 4 -12 1 -19z m57 -38 c6 0 12 -9 13 -19 1 -13 -3 -18
-13 -14 -7 3 -12 9 -9 13 3 5 1 11 -5 15 -5 3 -10 12 -9 18 0 9 2 9 6 0 2 -7
10 -13 17 -13z m651 -1100 c3 -5 1 -10 -4 -10 -6 0 -11 5 -11 10 0 6 2 10 4
10 3 0 8 -4 11 -10z m3072 -15 c0 -8 -3 -13 -5 -10 -3 3 -11 0 -18 -6 -9 -8
-12 -6 -9 8 2 10 4 21 4 25 2 14 28 -3 28 -17z m484 -227 c1 -7 0 -27 -1 -45
-1 -24 4 -33 20 -38 19 -6 21 -12 16 -43 -4 -26 -1 -41 12 -55 12 -14 17 -37
18 -81 0 -34 4 -68 8 -74 4 -7 3 -19 -3 -26 -8 -10 -8 -22 -1 -41 6 -15 6 -33
2 -42 -5 -8 -4 -37 1 -64 8 -42 7 -52 -6 -62 -12 -9 -17 -32 -19 -87 -3 -71
-4 -75 -25 -73 -32 4 -29 -13 8 -47 l31 -28 -35 -35 c-19 -20 -47 -37 -63 -39
-27 -3 -28 -4 -26 -68 1 -36 -2 -71 -7 -79 -9 -14 -36 -12 -74 4 -16 7 -18 3
-16 -21 1 -16 -2 -53 -6 -81 -7 -49 -10 -53 -34 -53 -38 0 -59 16 -43 32 6 6
12 20 12 29 0 9 6 19 13 22 14 5 11 87 -3 87 -16 0 -40 -69 -40 -114 0 -64
-21 -200 -32 -207 -12 -8 -57 1 -64 12 -6 11 15 52 33 62 14 8 12 65 -3 89
-10 16 -43 -43 -55 -99 -10 -43 -10 -55 2 -70 8 -9 9 -14 3 -10 -15 9 -23 -13
-31 -86 l-6 -59 -39 6 c-30 5 -38 3 -38 -9 0 -8 -7 -15 -15 -15 -24 0 -18 19
23 69 34 39 38 51 34 84 -2 21 -10 37 -17 37 -19 0 -53 -77 -67 -146 -6 -33
-17 -77 -23 -99 -11 -34 -11 -41 4 -52 14 -11 14 -14 1 -23 -35 -23 -97 0 -84
33 3 9 12 17 19 17 7 0 19 10 27 22 14 20 13 25 -4 49 -30 40 -51 27 -81 -51
-30 -75 -35 -106 -13 -77 16 21 32 22 40 2 4 -10 -3 -20 -19 -27 -14 -6 -25
-17 -25 -25 0 -7 -6 -16 -14 -19 -15 -6 -10 -44 5 -44 5 0 9 -7 9 -15 0 -8 -7
-15 -15 -15 -8 0 -15 -4 -15 -10 0 -14 -33 -12 -55 4 -12 8 -16 19 -12 31 5
12 11 14 20 8 6 -6 21 -13 32 -16 19 -7 19 -6 3 7 -20 15 -24 41 -8 51 6 4 3
16 -10 32 -11 14 -20 32 -20 39 0 8 -9 4 -25 -10 -25 -24 -70 -147 -61 -169 2
-7 5 -4 5 6 1 18 35 24 45 8 7 -10 -18 -33 -27 -25 -3 4 -15 -9 -26 -27 -20
-32 -20 -33 -1 -46 23 -16 27 -43 6 -43 -7 0 -19 -7 -26 -15 -10 -12 -16 -13
-26 -4 -22 18 -16 29 14 29 25 1 26 2 8 15 -10 7 -19 26 -19 42 -1 15 -7 34
-14 40 -6 7 -13 17 -15 23 -1 5 -13 7 -24 4 -16 -4 -23 -16 -28 -44 -3 -21
-13 -45 -21 -53 -8 -8 -11 -17 -8 -21 3 -3 1 -11 -5 -19 -7 -8 -7 -18 -2 -27
8 -12 10 -10 10 8 0 15 6 22 20 22 37 0 36 -30 -1 -61 -36 -30 -79 -38 -79
-15 0 8 -5 16 -11 18 -6 2 -13 16 -14 32 -4 33 1 28 -55 56 -25 13 -39 25 -32
27 17 6 15 23 -3 23 -25 0 -76 30 -70 40 4 6 -3 6 -19 1 -48 -19 -126 19 -112
54 6 17 4 18 -18 9 -14 -5 -14 -8 0 -21 18 -19 12 -27 -14 -18 -17 5 -20 13
-17 43 2 20 -2 40 -8 44 -6 4 -8 10 -4 14 4 4 15 -3 26 -14 23 -27 35 -29 21
-3 -13 26 -13 31 4 31 8 0 22 -10 30 -22 12 -17 13 -25 3 -37 -10 -13 -10 -14
3 -5 19 13 79 -6 73 -23 -6 -17 49 -17 65 -1 7 7 37 13 66 14 42 1 63 8 90 29
l37 28 -33 22 c-41 28 -78 40 -78 26 0 -6 -5 -11 -11 -11 -7 0 -18 -8 -25 -18
-12 -15 -15 -15 -27 -2 -6 8 -18 16 -25 18 -15 3 -51 -36 -52 -55 0 -6 -4 -14
-9 -17 -13 -8 -42 4 -35 15 3 5 -2 9 -10 9 -20 0 -43 40 -24 41 9 0 8 3 -2 6
-8 4 -21 13 -28 22 -11 14 -12 13 -7 -6 4 -14 2 -23 -4 -23 -6 0 -10 15 -9 32
1 18 -2 47 -6 65 l-7 32 76 -31 c58 -25 74 -36 69 -48 -16 -40 -13 -41 8 -4
20 37 26 41 46 33 14 -5 20 -13 16 -20 -5 -8 -3 -9 6 -4 10 6 7 13 -12 29 -23
20 -24 25 -20 99 4 66 10 86 25 75 7 -5 55 57 50 64 -8 14 -33 8 -27 -6 3 -8
-3 -16 -15 -19 -24 -6 -40 11 -21 23 10 6 9 9 -1 13 -8 3 -2 6 13 6 29 1 95
50 68 51 -9 0 -22 -6 -29 -12 -11 -11 -12 -10 -6 1 8 15 8 15 -44 -7 -11 -4
-12 -1 -6 14 17 40 22 128 8 142 -18 19 -16 24 9 20 11 -2 23 3 25 10 3 7 -5
12 -20 12 -20 0 -24 4 -20 21 5 17 11 19 37 13 17 -3 34 -12 38 -18 6 -8 8 -8
8 1 0 6 -5 15 -10 18 -15 9 -2 25 15 18 11 -3 15 2 15 17 0 20 4 22 33 17 17
-3 26 -3 18 0 -11 5 -11 7 0 15 10 7 8 8 -7 3 -13 -3 -26 1 -34 10 -11 13 -9
20 15 45 16 17 31 28 33 25 3 -2 17 4 31 14 36 25 71 33 64 15 -3 -8 -8 -12
-12 -10 -4 3 -18 -5 -31 -16 l-25 -20 25 14 c14 8 34 14 46 13 14 -1 20 4 20
18 -1 11 11 29 26 40 28 21 28 21 44 1 8 -10 12 -13 9 -6 -6 11 -3 11 14 0 26
-16 58 0 53 28 -4 27 -4 35 1 71 6 42 -18 67 -31 33 -8 -20 -9 -21 -15 -6 -7
19 0 39 11 32 4 -2 16 5 26 15 13 12 15 19 7 19 -11 0 -11 3 -1 15 6 8 15 14
18 13 4 0 9 1 12 2 3 1 16 3 29 4 21 3 22 1 7 -9 -21 -16 -21 -29 1 -21 13 5
11 0 -7 -20 -14 -15 -20 -24 -13 -20 6 3 15 1 19 -5 5 -9 10 -8 18 3 6 8 26
22 44 32 17 9 32 22 32 29 0 8 -4 7 -10 -3 -6 -9 -10 -10 -10 -3 0 14 40 39
54 35 5 -2 4 3 -2 11 -15 18 -7 26 19 20 13 -4 18 -11 14 -21 -5 -13 -3 -13
13 1 10 9 23 14 27 10 5 -5 4 -1 -2 7 -9 12 -5 18 23 32 33 17 34 17 34 -1 0
-10 -6 -24 -14 -30 -8 -7 -13 -21 -11 -32 2 -12 0 -17 -6 -13 -6 3 -10 -2 -9
-12 4 -35 0 -55 -9 -50 -5 4 -7 -2 -4 -12 2 -10 -7 -29 -21 -45 -16 -17 -26
-40 -26 -57 0 -22 -4 -28 -15 -24 -9 4 -18 -2 -24 -17 -5 -13 -20 -36 -34 -51
-15 -16 -21 -28 -14 -28 6 0 -5 -14 -26 -31 -20 -17 -37 -34 -37 -39 0 -14 41
2 48 19 3 9 16 27 28 40 12 13 20 31 16 39 -3 10 -1 13 7 8 11 -7 68 46 72 67
1 4 3 12 4 17 1 6 3 16 4 23 1 9 3 9 9 -1 10 -16 63 61 110 158 75 159 111
239 132 300 25 73 48 120 56 120 4 0 4 -9 1 -20 -3 -11 -1 -22 4 -25 4 -3 6
-12 2 -21 -3 -9 0 -14 7 -12 7 2 14 -5 15 -16 5 -25 -15 -67 -28 -59 -6 4 -7
1 -1 -8 10 -17 6 -56 -11 -89 -7 -14 -15 -43 -18 -64 -4 -21 -15 -48 -25 -60
-11 -12 -24 -34 -29 -51 -5 -16 -15 -30 -21 -30 -7 0 -32 -38 -55 -85 -55
-109 -115 -212 -130 -225 -14 -12 -30 -37 -53 -80 -9 -16 -32 -38 -52 -47 -31
-15 -82 -79 -82 -102 0 -3 14 -3 31 1 31 6 32 5 25 -23 -11 -44 -29 -58 -55
-45 -11 7 -21 18 -21 26 0 24 -16 18 -56 -21 -36 -34 -52 -64 -33 -64 10 0 0
-60 -13 -77 -5 -6 -16 -9 -23 -7 -20 8 -27 34 -14 50 20 25 -7 15 -31 -11 -35
-37 -31 -115 5 -85 8 7 25 10 38 6 30 -7 88 9 120 34 14 11 33 20 44 20 17 1
16 1 -2 12 -31 16 -66 56 -56 63 5 3 22 7 38 10 62 9 106 24 127 44 12 12 28
21 36 21 8 0 -1 11 -19 24 -18 14 -39 22 -47 19 -10 -4 -12 0 -8 11 3 9 18 19
33 22 62 12 107 29 126 45 11 10 31 22 44 27 l25 9 -32 14 c-38 17 -38 38 1
56 15 7 39 20 55 28 15 8 42 22 60 30 35 17 42 34 15 37 -62 5 -133 -15 -133
-39 0 -23 -31 -28 -46 -8 -13 17 -11 20 14 32 15 7 34 17 42 22 17 10 45 22
109 46 25 9 60 30 78 46 19 16 38 29 44 29 21 0 -3 19 -32 25 l-31 7 53 54
c30 30 65 58 79 61 22 6 23 7 5 14 -11 4 -32 4 -47 2 -29 -6 -38 9 -15 26 6 6
31 26 53 45 23 20 47 36 53 36 6 0 11 5 11 10 0 6 -11 8 -26 4 -19 -5 -25 -4
-20 5 4 6 2 11 -3 11 -13 0 25 71 47 88 18 14 27 62 11 62 -16 0 -9 40 11 60
24 24 25 33 5 50 -22 18 -18 38 11 65 l26 24 -28 25 c-29 25 -29 25 -11 56 9
18 17 40 17 49 0 28 29 46 31 19z m-704 -34 c-3 -3 -12 -4 -19 -1 -8 3 -5 6 6
6 11 1 17 -2 13 -5z m-2702 -44 c3 -5 1 -10 -4 -10 -6 0 -11 5 -11 10 0 6 2
10 4 10 3 0 8 -4 11 -10z m2665 -5 c-7 -8 -17 -12 -23 -8 -6 4 -3 9 9 14 27
11 28 11 14 -6z m-118 -27 c-7 -7 -12 -8 -12 -2 0 14 12 26 19 19 2 -3 -1 -11
-7 -17z m-2462 -128 c0 -5 -4 -10 -10 -10 -5 0 -10 5 -10 10 0 6 5 10 10 10 6
0 10 -4 10 -10z m10 -30 c0 -5 -2 -10 -4 -10 -3 0 -8 5 -11 10 -3 6 -1 10 4
10 6 0 11 -4 11 -10z m1905 -33 c10 -8 14 -16 9 -19 -5 -3 -17 3 -26 14 -21
21 -10 24 17 5z m-1551 -103 c3 -8 2 -12 -4 -9 -6 3 -10 10 -10 16 0 14 7 11
14 -7z m2434 -59 c-3 -3 -9 2 -12 12 -6 14 -5 15 5 6 7 -7 10 -15 7 -18z m-48
-58 c0 -8 -7 -14 -15 -14 -11 0 -12 4 -4 14 6 7 13 13 15 13 2 0 4 -6 4 -13z
m364 -19 c-10 -33 -24 -48 -45 -48 -26 0 -24 28 4 51 31 26 50 25 41 -3z
m-2039 -38 c-3 -5 -12 -10 -18 -10 -7 0 -6 4 3 10 19 12 23 12 15 0z m-311
-26 c3 -8 2 -12 -4 -9 -6 3 -10 10 -10 16 0 14 7 11 14 -7z m266 12 c0 -3 -4
-8 -10 -11 -5 -3 -10 -1 -10 4 0 6 5 11 10 11 6 0 10 -2 10 -4z m-237 -116 c3
-11 1 -18 -4 -14 -5 3 -9 12 -9 20 0 20 7 17 13 -6z m-223 -9 c-14 -28 -13
-54 3 -45 6 4 3 -3 -8 -15 -11 -13 -28 -27 -38 -33 -16 -8 -17 -7 -7 11 6 12
7 21 3 21 -4 0 -2 4 6 9 8 5 16 17 17 26 2 16 22 45 31 45 2 0 -1 -9 -7 -19z
m150 -43 c0 -25 -4 -38 -9 -32 -8 8 -4 74 5 74 2 0 4 -19 4 -42z m50 -53 c-10
-39 -19 -65 -19 -60 -1 6 -5 4 -10 -3 -7 -11 -9 -10 -14 3 -4 9 -3 14 2 11 13
-8 21 18 14 46 -4 19 -3 20 7 8 10 -13 11 -11 7 7 -4 19 19 70 28 61 2 -2 -4
-35 -15 -73z m1730 14 c-7 -11 -14 -18 -17 -15 -3 3 0 12 7 21 18 21 23 19 10
-6z m473 -22 c-22 -37 -36 -43 -57 -22 -16 17 -22 40 -8 31 5 -3 21 4 37 14
38 25 50 15 28 -23z m-1906 11 c-3 -8 -6 -5 -6 6 -1 11 2 17 5 13 3 -3 4 -12
1 -19z m133 -23 c0 -8 -4 -15 -10 -15 -5 0 -7 7 -4 15 4 8 8 15 10 15 2 0 4
-7 4 -15z m-719 -18 c-10 -9 -11 -8 -5 6 3 10 9 15 12 12 3 -3 0 -11 -7 -18z
m689 -71 c0 -26 -6 -18 -14 19 -5 22 -4 26 4 15 5 -8 10 -24 10 -34z m-645
-16 c-3 -5 -12 -10 -18 -10 -7 0 -6 4 3 10 19 12 23 12 15 0z m222 -37 c-3
-10 -5 -4 -5 12 0 17 2 24 5 18 2 -7 2 -21 0 -30z m213 -26 c0 -10 3 -16 8
-14 4 3 7 -20 8 -50 1 -65 -11 -51 -19 22 -3 28 -9 59 -12 70 -6 16 -5 17 4 5
6 -8 11 -23 11 -33z m-243 11 c-3 -8 -6 -5 -6 6 -1 11 2 17 5 13 3 -3 4 -12 1
-19z m300 -20 c-3 -8 -6 -5 -6 6 -1 11 2 17 5 13 3 -3 4 -12 1 -19z m-270 -40
c-3 -7 -5 -2 -5 12 0 14 2 19 5 13 2 -7 2 -19 0 -25z m2026 -49 c-10 -35 -20
-43 -42 -30 -18 12 -6 46 22 58 28 13 30 12 20 -28z m-2016 -31 c-3 -8 -6 -5
-6 6 -1 11 2 17 5 13 3 -3 4 -12 1 -19z m1330 -25 c-11 -10 -37 12 -37 31 1
21 1 21 21 -3 11 -13 18 -26 16 -28z m-72 7 c-1 -22 -15 -41 -15 -21 0 7 -5 9
-11 6 -6 -4 -5 2 3 14 16 26 25 27 23 1z m-730 -75 c25 -78 27 -94 5 -50 -11
22 -22 55 -26 73 -3 18 -12 32 -21 32 -11 0 -11 3 -1 14 15 16 15 16 43 -69z
m-285 41 c14 -18 14 -18 -7 -6 -12 8 -19 18 -16 23 3 4 6 7 7 5 1 -2 8 -12 16
-22z m208 -31 c-3 -3 -9 2 -12 12 -6 14 -5 15 5 6 7 -7 10 -15 7 -18z m889
-20 c-9 -60 -26 -85 -59 -85 -34 0 -79 20 -72 31 3 5 0 9 -5 9 -6 0 -11 -4
-11 -10 0 -5 -9 -10 -20 -10 -12 0 -20 7 -20 17 0 9 3 13 7 10 3 -4 11 0 17 8
6 8 23 16 39 17 28 2 36 13 15 22 -7 3 -1 3 13 0 15 -3 30 -1 33 5 4 5 13 8
21 4 9 -3 15 1 15 11 0 9 7 16 16 16 14 0 16 -7 11 -45z m-1120 3 c-3 -7 -5
-2 -5 12 0 14 2 19 5 13 2 -7 2 -19 0 -25z m47 6 c3 -8 2 -12 -4 -9 -6 3 -10
10 -10 16 0 14 7 11 14 -7z m916 -14 c0 -5 -7 -10 -16 -10 -8 0 -12 5 -9 10 3
6 10 10 16 10 5 0 9 -4 9 -10z m79 -90 c29 0 32 -2 21 -15 -8 -9 -21 -13 -34
-10 -14 4 -17 3 -8 -3 19 -13 6 -34 -42 -65 -41 -26 -44 -26 -75 -11 -27 13
-34 14 -48 2 -11 -9 -14 -9 -9 -1 4 7 2 22 -4 34 -16 28 -6 35 22 15 12 -9 36
-16 52 -16 29 0 29 0 10 21 -10 11 -20 16 -22 10 -2 -6 -13 -11 -24 -11 -28 0
-17 24 13 28 28 4 51 21 44 32 -3 4 12 4 33 -1 20 -5 52 -9 71 -9z m53 -18 c3
-11 0 -19 -8 -19 -16 0 -16 0 -8 21 8 21 11 20 16 -2z m-23 -44 c-21 -7 -49
-43 -49 -63 0 -12 32 -3 49 14 11 11 22 17 25 14 10 -11 6 -49 -6 -62 -11 -11
-10 -12 1 -6 11 7 13 1 8 -30 -3 -20 -8 -40 -11 -42 -11 -11 -131 18 -163 39
-27 19 -31 25 -18 34 8 6 14 13 12 15 -1 2 3 -1 9 -8 9 -11 14 -10 24 2 7 9
10 18 7 21 -3 4 18 22 48 42 30 20 52 39 49 43 -2 4 6 5 18 1 22 -5 22 -6 -3
-14z m-1094 -118 c10 -11 16 -20 13 -20 -3 0 -13 9 -23 20 -10 11 -16 20 -13
20 3 0 13 -9 23 -20z m422 -22 c-3 -8 -6 -5 -6 6 -1 11 2 17 5 13 3 -3 4 -12
1 -19z m-2430 -25 c-10 -32 -13 -34 -15 -15 -3 19 12 52 23 52 2 0 -2 -17 -8
-37z m3073 -23 c18 -12 2 -12 -25 0 -13 6 -15 9 -5 9 8 0 22 -4 30 -9z m-903
-42 c-3 -7 -5 -2 -5 12 0 14 2 19 5 13 2 -7 2 -19 0 -25z m760 10 c-3 -8 -6
-5 -6 6 -1 11 2 17 5 13 3 -3 4 -12 1 -19z m-2767 -2 c0 -8 -3 -22 -6 -30 -5
-13 -9 -14 -20 -5 -17 14 -18 36 -1 42 21 9 27 7 27 -7z m2640 -36 c0 -16 -4
-31 -9 -34 -4 -3 -8 5 -7 17 1 12 -2 25 -7 28 -12 9 1 31 14 24 5 -4 9 -19 9
-35z m40 -69 c0 -55 -24 -21 -25 35 -2 43 -1 45 11 23 7 -13 13 -40 14 -58z
m68 13 c-3 -14 -5 -12 -10 9 -3 19 -2 25 4 19 6 -6 8 -18 6 -28z m-51 -51 c-3
-10 -5 -4 -5 12 0 17 2 24 5 18 2 -7 2 -21 0 -30z m107 -74 c-6 -11 -24 -2
-24 11 0 5 7 7 15 4 8 -4 12 -10 9 -15z m56 -9 c0 -5 -2 -10 -4 -10 -3 0 -8 5
-11 10 -3 6 -1 10 4 10 6 0 11 -4 11 -10z m-3001 -66 c-15 -18 -22 -13 -13 10
3 9 10 13 16 10 5 -3 4 -12 -3 -20z m3192 -21 c27 -14 49 -29 49 -33 0 -3 -11
-21 -25 -40 -16 -22 -25 -47 -25 -71 0 -28 -5 -38 -20 -42 -14 -4 -18 -11 -14
-31 3 -16 0 -26 -7 -26 -7 0 -5 -8 5 -19 10 -11 15 -24 12 -30 -3 -5 1 -16 9
-24 34 -34 8 -50 -34 -21 -21 15 -22 18 -7 26 14 8 12 12 -13 34 -16 14 -31
35 -33 47 -2 16 -11 23 -32 25 -18 2 -26 0 -21 -7 3 -6 11 -9 16 -6 5 3 6 -1
3 -8 -3 -8 -14 -17 -24 -20 -16 -4 -17 -1 -9 27 5 17 9 38 9 46 0 13 -1 13
-10 0 -8 -12 -10 -12 -15 2 -4 9 -5 22 -4 29 3 19 -11 50 -21 44 -4 -2 -15 4
-24 14 -22 24 -17 65 8 69 10 2 16 0 13 -5 -3 -5 -2 -15 2 -22 6 -9 10 -5 15
13 6 24 9 25 69 21 34 -2 82 -6 107 -9 49 -7 47 -5 -17 14 -23 7 -40 17 -37
21 8 14 23 11 75 -18z m-3174 -10 c-9 -9 -19 -14 -23 -11 -10 10 6 28 24 28
15 0 15 -1 -1 -17z m145 -35 c-7 -7 -12 -8 -12 -2 0 14 12 26 19 19 2 -3 -1
-11 -7 -17z m-130 -10 c-7 -7 -12 -8 -12 -2 0 14 12 26 19 19 2 -3 -1 -11 -7
-17z m3286 -94 c28 -2 32 -5 32 -19 0 -18 -11 -19 -45 -3 -15 7 -25 19 -25 32
1 18 2 19 13 6 7 -8 18 -15 25 -16z m-3063 -44 c-1 -19 -25 -53 -25 -36 0 5
-7 3 -15 -4 -24 -20 -19 10 7 37 26 28 35 29 33 3z m2636 -5 c3 2 5 -4 5 -13
1 -9 5 -26 9 -37 8 -19 8 -19 -12 -2 -23 20 -40 75 -18 57 6 -5 14 -8 16 -5z
m334 -6 c7 -11 -31 -59 -47 -59 -15 0 -8 43 10 56 21 16 29 17 37 3z m95 7 c0
-3 -4 -8 -10 -11 -5 -3 -10 -1 -10 4 0 6 5 11 10 11 6 0 10 -2 10 -4z m-387
-26 c3 -11 1 -20 -4 -20 -5 0 -9 9 -9 20 0 11 2 20 4 20 2 0 6 -9 9 -20z m-50
-46 c14 -17 15 -21 2 -21 -8 0 -15 4 -15 8 0 4 -3 16 -7 26 -3 10 -4 16 -2 13
2 -3 12 -14 22 -26z m82 16 c3 -5 1 -10 -4 -10 -6 0 -11 5 -11 10 0 6 2 10 4
10 3 0 8 -4 11 -10z m-2723 -17 c-6 -3 -10 -8 -7 -13 3 -5 -2 -16 -11 -25 -13
-13 -19 -13 -31 -3 -12 10 -12 13 -2 17 7 2 22 12 33 22 11 11 22 16 25 13 3
-4 0 -9 -7 -11z m2728 -31 c0 -15 -2 -15 -10 -2 -13 20 -13 33 0 25 6 -3 10
-14 10 -23z m-2680 -24 c0 -5 -11 -8 -25 -8 -26 0 -29 7 -19 33 5 14 8 13 25
-1 10 -9 19 -20 19 -24z m-180 2 c0 -5 -4 -10 -10 -10 -5 0 -10 5 -10 10 0 6
5 10 10 10 6 0 10 -4 10 -10z m-90 -15 c0 -8 -4 -15 -10 -15 -5 0 -7 7 -4 15
4 8 8 15 10 15 2 0 4 -7 4 -15z"/>
<path d="M4910 8820 c0 -5 4 -10 9 -10 6 0 13 5 16 10 3 6 -1 10 -9 10 -9 0
-16 -4 -16 -10z"/>
<path d="M3404 8271 c4 -5 0 -11 -6 -14 -7 -2 -10 -8 -6 -12 4 -4 11 -4 17 0
14 8 14 35 0 35 -5 0 -8 -4 -5 -9z"/>
<path d="M3360 8220 c0 -5 4 -10 9 -10 6 0 13 5 16 10 3 6 -1 10 -9 10 -9 0
-16 -4 -16 -10z"/>
<path d="M3160 7819 c0 -5 5 -7 10 -4 6 3 10 8 10 11 0 2 -4 4 -10 4 -5 0 -10
-5 -10 -11z"/>
<path d="M3056 7453 c-6 -14 -5 -15 5 -6 7 7 10 15 7 18 -3 3 -9 -2 -12 -12z"/>
<path d="M3159 7053 c-13 -16 -12 -17 4 -4 16 13 21 21 13 21 -2 0 -10 -8 -17
-17z"/>
<path d="M3147 6983 c-4 -3 -7 -11 -7 -17 0 -6 5 -5 12 2 6 6 9 14 7 17 -3 3
-9 2 -12 -2z"/>
<path d="M3062 6911 c-18 -32 -32 -67 -31 -77 0 -13 4 -9 11 11 6 17 22 50 35
73 14 24 23 45 21 47 -2 2 -18 -22 -36 -54z"/>
<path d="M3190 6860 c-6 -11 -8 -20 -6 -20 3 0 10 9 16 20 6 11 8 20 6 20 -3
0 -10 -9 -16 -20z"/>
<path d="M3257 6823 c-4 -3 -6 -25 -5 -47 1 -41 1 -41 5 -6 3 19 9 41 15 47
11 13 -3 19 -15 6z"/>
<path d="M7101 6760 c1 -43 -7 -78 -21 -94 -5 -7 -7 -15 -5 -18 3 -3 1 -17 -4
-32 -9 -21 -8 -26 4 -26 8 0 16 9 16 20 2 33 4 38 12 46 4 4 7 -2 7 -14 0 -12
5 -22 10 -22 13 0 13 23 0 36 -7 7 -6 24 4 52 10 29 12 50 6 65 -8 20 -9 21
-10 2 l-1 -20 -9 20 c-7 16 -9 14 -9 -15z"/>
<path d="M3300 6741 c-13 -25 -13 -28 3 -34 8 -3 12 5 12 24 0 34 -1 35 -15
10z"/>
<path d="M3587 6665 c7 -49 13 -58 13 -19 0 16 -5 36 -10 44 -6 10 -7 2 -3
-25z"/>
<path d="M3600 6593 c0 -6 8 -17 18 -24 16 -13 16 -13 2 6 -8 11 -16 22 -17
24 -2 2 -3 0 -3 -6z"/>
<path d="M3596 6533 c7 -25 31 -38 31 -17 0 8 -3 12 -5 9 -3 -3 -11 3 -18 13
-12 15 -13 15 -8 -5z"/>
<path d="M3656 6497 c3 -10 9 -15 12 -12 3 3 0 11 -7 18 -10 9 -11 8 -5 -6z"/>
<path d="M3740 6457 c0 -8 11 -17 25 -19 27 -6 24 6 -6 22 -15 8 -19 7 -19 -3z"/>
<path d="M3903 6408 c16 -6 24 -14 20 -21 -3 -7 -3 -9 1 -5 5 4 19 3 32 -2 13
-5 24 -6 24 -2 0 8 -80 42 -95 41 -6 0 2 -5 18 -11z"/>
<path d="M6805 6380 c-3 -5 -1 -10 4 -10 6 0 11 5 11 10 0 6 -2 10 -4 10 -3 0
-8 -4 -11 -10z"/>
<path d="M6066 6352 c-3 -5 8 -6 25 -4 16 2 29 6 29 8 0 8 -49 4 -54 -4z"/>
<path d="M6313 6333 c0 -7 3 -13 7 -13 3 0 14 6 23 13 16 11 15 12 -6 12 -13
0 -24 -6 -24 -12z"/>
<path d="M6608 6343 c7 -3 16 -2 19 1 4 3 -2 6 -13 5 -11 0 -14 -3 -6 -6z"/>
<path d="M4095 6310 c3 -5 8 -10 11 -10 2 0 4 5 4 10 0 6 -5 10 -11 10 -5 0
-7 -4 -4 -10z"/>
<path d="M4150 6306 c0 -2 8 -10 18 -17 15 -13 16 -12 3 4 -13 16 -21 21 -21
13z"/>
<path d="M6475 6300 c4 -6 11 -8 16 -5 14 9 11 15 -7 15 -8 0 -12 -5 -9 -10z"/>
<path d="M6638 6303 c6 -2 18 -2 25 0 6 3 1 5 -13 5 -14 0 -19 -2 -12 -5z"/>
<path d="M5246 6111 c-4 -5 3 -7 14 -4 23 6 26 13 6 13 -8 0 -17 -4 -20 -9z"/>
<path d="M5167 6062 c-14 -15 -14 -19 -3 -19 8 0 17 9 19 19 3 10 4 18 3 18
-2 0 -10 -8 -19 -18z"/>
<path d="M3375 5950 c-3 -5 -2 -10 4 -10 5 0 13 5 16 10 3 6 2 10 -4 10 -5 0
-13 -4 -16 -10z"/>
<path d="M3374 5910 c0 -11 7 -22 14 -25 9 -3 12 0 9 9 -4 10 -1 13 9 9 7 -3
14 -1 14 5 0 9 -22 22 -39 22 -4 0 -7 -9 -7 -20z"/>
<path d="M6495 5839 c-5 -15 -1 -25 14 -36 12 -8 19 -19 16 -24 -7 -10 10 -11
43 -3 25 7 30 29 8 37 -9 4 -16 -3 -20 -16 -5 -20 -6 -20 -26 -2 -22 20 -26
41 -8 47 8 3 6 7 -4 11 -12 4 -19 -1 -23 -14z"/>
<path d="M4077 5824 c-11 -11 3 -24 18 -18 8 4 12 10 9 15 -6 11 -18 12 -27 3z"/>
<path d="M5587 5800 c-3 -11 -2 -20 3 -20 4 0 10 9 13 20 3 11 2 20 -3 20 -4
0 -10 -9 -13 -20z"/>
<path d="M6450 5806 c0 -3 9 -10 20 -16 11 -6 20 -8 20 -6 0 3 -9 10 -20 16
-11 6 -20 8 -20 6z"/>
<path d="M5455 5750 c3 -5 8 -10 11 -10 2 0 4 5 4 10 0 6 -5 10 -11 10 -5 0
-7 -4 -4 -10z"/>
<path d="M7105 5750 c3 -5 8 -10 11 -10 2 0 4 5 4 10 0 6 -5 10 -11 10 -5 0
-7 -4 -4 -10z"/>
<path d="M6438 5723 c7 -3 16 -2 19 1 4 3 -2 6 -13 5 -11 0 -14 -3 -6 -6z"/>
<path d="M6415 5700 c4 -6 11 -8 16 -5 14 9 11 15 -7 15 -8 0 -12 -5 -9 -10z"/>
<path d="M6635 5600 c-3 -5 1 -10 9 -10 8 0 18 5 21 10 3 6 -1 10 -9 10 -8 0
-18 -4 -21 -10z"/>
<path d="M5275 5540 c-10 -11 -13 -20 -8 -20 13 0 38 29 31 35 -3 3 -13 -4
-23 -15z"/>
<path d="M6915 5519 c-4 -5 3 -9 15 -9 13 0 19 -4 14 -11 -4 -7 1 -10 12 -7
30 5 23 32 -8 35 -15 1 -30 -2 -33 -8z"/>
<path d="M4409 5421 c-29 -30 -32 -46 -3 -19 15 15 26 29 23 31 -2 3 -11 -3
-20 -12z"/>
<path d="M6700 5430 c-22 -6 -21 -7 14 -13 45 -7 57 -3 29 11 -10 5 -29 6 -43
2z"/>
<path d="M6932 5425 c-13 -7 -36 -11 -51 -9 -17 2 -34 -3 -41 -11 -10 -12 -7
-15 14 -21 14 -3 34 -3 43 2 10 4 20 8 23 9 24 8 60 25 60 29 0 11 -27 11 -48
1z"/>
<path d="M3064 5395 c-9 -21 -2 -26 13 -10 8 9 9 16 3 20 -6 3 -13 -1 -16 -10z"/>
<path d="M6448 5393 c7 -3 16 -2 19 1 4 3 -2 6 -13 5 -11 0 -14 -3 -6 -6z"/>
<path d="M6950 5390 c0 -5 9 -10 21 -10 11 0 17 5 14 10 -3 6 -13 10 -21 10
-8 0 -14 -4 -14 -10z"/>
<path d="M4455 5380 c4 -6 1 -17 -5 -25 -8 -10 -8 -19 -2 -32 9 -15 12 -13 20
17 10 37 7 50 -9 50 -6 0 -7 -5 -4 -10z"/>
<path d="M6605 5370 c3 -5 11 -10 16 -10 6 0 7 5 4 10 -3 6 -11 10 -16 10 -6
0 -7 -4 -4 -10z"/>
<path d="M5597 5359 c-10 -6 -25 -8 -33 -5 -29 11 -13 -4 22 -20 26 -12 38
-14 46 -6 8 8 7 13 -5 18 -9 3 -14 10 -11 15 7 11 3 11 -19 -2z"/>
<path d="M3143 5353 c-29 -10 -7 -30 52 -48 43 -13 55 -19 55 -27 0 -5 4 -7 9
-4 5 4 22 1 37 -4 36 -14 72 -19 174 -24 47 -3 72 -1 55 3 l-30 7 25 7 c14 4
38 7 53 7 18 0 26 4 21 11 -4 8 -25 9 -58 5 -36 -4 -58 -2 -71 8 -11 7 -33 16
-50 20 -16 4 -38 14 -47 23 -12 10 -44 16 -115 18 -54 1 -104 0 -110 -2z"/>
<path d="M4415 5349 c-4 -6 -5 -12 -2 -15 2 -3 7 2 10 11 7 17 1 20 -8 4z"/>
<path d="M6150 5346 c0 -2 9 -6 20 -9 11 -3 18 -1 14 4 -5 9 -34 13 -34 5z"/>
<path d="M5650 5318 c0 -10 35 -28 54 -28 9 0 16 5 16 10 0 6 -7 10 -16 10 -8
0 -13 3 -11 8 3 4 -6 7 -19 7 -13 0 -24 -3 -24 -7z"/>
<path d="M6160 5316 c14 -8 27 -12 29 -10 6 6 -1 11 -29 18 l-25 7 25 -15z"/>
<path d="M6060 5311 c0 -6 5 -11 10 -11 6 0 10 -7 10 -17 0 -14 -2 -14 -20 2
-11 10 -20 15 -20 10 0 -4 -7 -2 -15 5 -12 10 -15 9 -15 -4 0 -10 -4 -15 -9
-11 -5 3 -12 1 -16 -5 -3 -5 -1 -10 5 -10 6 0 15 -10 20 -22 8 -22 9 -21 10 7
0 23 3 27 10 15 8 -12 10 -12 10 5 0 18 1 18 16 -3 18 -26 34 -21 35 11 0 12
3 16 6 10 2 -7 9 -13 15 -13 6 0 5 6 -2 15 -7 9 -15 13 -18 10 -3 -3 -11 0
-19 6 -9 9 -13 8 -13 0z"/>
<path d="M5765 5299 c-4 -6 -13 -8 -21 -5 -8 3 -14 1 -14 -4 0 -6 -8 -10 -17
-10 -16 -1 -16 -2 2 -16 27 -20 47 -14 56 19 8 28 5 35 -6 16z m-5 -29 c0 -5
-4 -10 -10 -10 -5 0 -10 5 -10 10 0 6 5 10 10 10 6 0 10 -4 10 -10z"/>
<path d="M5850 5295 c-1 -11 -4 -15 -6 -8 -3 6 -17 9 -32 7 -36 -7 -39 -12
-17 -28 10 -7 15 -18 11 -24 -4 -7 -2 -12 3 -12 6 0 11 5 11 11 0 6 7 9 15 5
8 -3 15 -1 15 4 0 6 6 9 12 8 7 -2 14 8 16 22 2 18 0 21 -7 11 -7 -11 -10 -10
-14 5 -4 18 -5 18 -7 -1z"/>
<path d="M6216 5297 c3 -10 9 -15 12 -12 3 3 0 11 -7 18 -10 9 -11 8 -5 -6z"/>
<path d="M5950 5293 c0 -7 -11 -13 -24 -13 -14 0 -28 -4 -31 -10 -4 -6 5 -10
19 -10 18 0 26 -5 26 -17 0 -14 3 -14 16 5 11 16 12 27 5 39 -6 10 -11 12 -11
6z"/>
<path d="M6192 5270 c0 -14 2 -19 5 -12 2 6 2 18 0 25 -3 6 -5 1 -5 -13z"/>
<path d="M4396 5263 c-6 -14 -5 -15 5 -6 7 7 10 15 7 18 -3 3 -9 -2 -12 -12z"/>
<path d="M6910 5229 c11 -37 20 -48 21 -28 1 8 4 4 7 -8 5 -17 11 -20 22 -13
10 7 11 13 5 18 -6 4 -11 16 -10 27 0 23 -12 35 -37 35 -14 0 -15 -5 -8 -31z
m30 6 c0 -8 -2 -15 -4 -15 -2 0 -6 7 -10 15 -3 8 -1 15 4 15 6 0 10 -7 10 -15z"/>
<path d="M5962 5220 c0 -19 2 -27 5 -17 2 9 2 25 0 35 -3 9 -5 1 -5 -18z"/>
<path d="M2770 5215 c0 -8 5 -15 10 -15 6 0 10 7 10 15 0 8 -4 15 -10 15 -5 0
-10 -7 -10 -15z"/>
<path d="M4402 5178 c-2 -29 1 -39 10 -36 7 3 13 11 13 19 0 8 3 16 6 19 3 3
-1 12 -10 22 -15 15 -16 13 -19 -24z"/>
<path d="M5390 5140 c0 -5 5 -10 11 -10 5 0 7 5 4 10 -3 6 -8 10 -11 10 -2 0
-4 -4 -4 -10z"/>
<path d="M6908 5143 c-24 -6 -23 -17 5 -37 l22 -17 -23 5 c-22 4 -23 3 -8 -12
10 -12 12 -22 6 -32 -15 -23 -12 -36 9 -37 11 -1 18 5 18 15 0 41 2 45 17 33
11 -10 14 -7 12 14 0 14 -5 25 -10 25 -5 0 -3 7 4 15 10 12 10 15 -1 15 -11 0
-11 2 1 10 11 7 12 10 2 10 -8 0 -16 -9 -19 -20 -3 -11 -10 -17 -15 -14 -5 3
-7 12 -4 20 3 8 4 13 3 13 -1 -1 -10 -3 -19 -6z"/>
<path d="M2705 5110 c-3 -5 -1 -10 4 -10 6 0 11 5 11 10 0 6 -2 10 -4 10 -3 0
-8 -4 -11 -10z"/>
<path d="M5441 5106 c2 -2 18 -6 34 -10 22 -5 26 -4 15 4 -14 9 -59 15 -49 6z"/>
<path d="M6205 5099 c-27 -5 -86 -8 -130 -7 -47 2 -80 -1 -80 -7 0 -6 14 -12
30 -14 41 -5 255 20 261 31 6 10 -13 9 -81 -3z"/>
<path d="M2720 5090 c-8 -5 -11 -12 -7 -16 4 -4 13 -2 19 4 15 15 7 24 -12 12z"/>
<path d="M5528 5078 c6 -6 18 -8 28 -6 14 3 12 5 -9 10 -19 3 -25 2 -19 -4z"/>
<path d="M5590 5071 c0 -10 121 -41 175 -45 28 -2 37 -2 20 1 -16 2 -37 11
-45 18 -20 18 -73 38 -65 25 3 -6 -1 -10 -10 -10 -9 0 -14 4 -11 8 3 5 -10 9
-29 9 -19 0 -35 -3 -35 -6z"/>
<path d="M2753 5025 c-15 -16 -17 -32 -5 -39 4 -3 13 8 19 25 12 31 6 37 -14
14z"/>
<path d="M4230 5030 c-10 -6 -11 -10 -2 -10 6 0 12 -7 12 -15 0 -9 6 -12 16
-8 9 3 11 9 6 12 -5 3 -11 11 -13 18 -3 8 -9 9 -19 3z"/>
<path d="M4388 5008 c-17 -21 -23 -38 -14 -38 3 0 14 14 26 30 24 34 14 41
-12 8z"/>
<path d="M6900 4989 c0 -5 5 -7 10 -4 6 3 10 8 10 11 0 2 -4 4 -10 4 -5 0 -10
-5 -10 -11z"/>
<path d="M6931 4954 c0 -11 3 -14 6 -6 3 7 2 16 -1 19 -3 4 -6 -2 -5 -13z"/>
<path d="M4330 4885 c-7 -9 -11 -18 -8 -20 3 -3 11 1 18 10 7 9 11 18 8 20 -3
3 -11 -1 -18 -10z"/>
<path d="M4246 4871 c-10 -11 -21 -20 -25 -19 -17 3 -39 -15 -34 -28 4 -12 8
-12 19 3 11 14 10 9 -1 -19 -8 -21 -13 -38 -10 -38 3 0 -1 -13 -10 -30 -18
-34 -28 -39 -23 -10 2 10 -1 20 -6 22 -5 2 -11 -8 -13 -21 -2 -13 -15 -34 -28
-45 -14 -12 -25 -26 -25 -31 0 -6 5 -3 10 5 8 13 10 12 10 -4 0 -20 0 -20 15
0 13 17 14 17 15 2 0 -18 -9 -22 -42 -19 -10 1 -18 -4 -18 -13 0 -9 4 -16 10
-16 5 0 7 -7 3 -15 -5 -14 -8 -14 -25 2 -18 16 -19 16 -25 -6 -3 -13 -11 -20
-19 -17 -8 3 -14 -1 -14 -10 0 -8 -4 -13 -10 -9 -5 3 -14 -13 -20 -35 -12 -45
-46 -87 -53 -67 -3 7 -5 -4 -5 -23 1 -19 5 -43 10 -54 7 -13 6 -21 -3 -26 -15
-10 -21 -40 -8 -40 6 0 7 -5 4 -10 -4 -6 -10 -8 -15 -5 -5 3 -12 0 -16 -6 -4
-8 -3 -9 4 -5 7 4 12 2 12 -3 0 -6 -5 -11 -11 -11 -8 0 -8 -4 1 -15 6 -8 9
-19 5 -25 -3 -5 1 -13 9 -16 16 -6 17 -48 2 -72 -7 -11 -1 -16 16 -13 7 1 3
-33 -7 -49 -3 -5 7 -8 25 -5 17 2 36 -2 44 -11 8 -8 31 -14 51 -14 29 0 36 -3
31 -15 -3 -8 -1 -15 4 -15 6 0 10 5 10 10 0 6 5 10 10 10 6 0 10 -6 10 -14 0
-8 5 -18 12 -22 7 -4 8 -3 4 4 -4 7 -2 12 3 12 6 0 11 -7 11 -16 0 -13 3 -14
13 -5 8 6 17 8 21 4 3 -4 23 -8 44 -9 52 -4 61 -7 111 -33 23 -12 40 -18 37
-13 -3 6 13 11 38 13 25 2 42 0 38 -5 -3 -5 2 -7 11 -3 10 3 17 2 17 -4 0 -5
11 -7 26 -3 21 5 25 4 19 -6 -6 -10 -1 -12 23 -7 20 4 32 2 36 -6 3 -7 5 -6 5
4 1 10 9 15 24 13 12 -1 23 -3 25 -4 1 -2 8 -3 15 -4 6 -1 11 -8 9 -14 -1 -7
5 -20 13 -29 15 -14 15 -13 10 13 -5 24 -4 26 5 12 15 -24 28 -22 32 5 4 23 9
24 42 11 12 -4 17 -4 13 2 -3 6 3 16 15 23 16 10 19 10 12 -1 -6 -10 -4 -10 9
1 9 7 17 10 17 6 0 -4 10 -1 23 7 22 15 61 18 73 5 13 -12 36 -8 28 6 -5 7 -1
7 12 -3 10 -8 16 -11 12 -6 -4 5 0 15 8 24 14 13 22 13 77 0 44 -11 64 -12 69
-4 4 6 13 11 20 11 7 0 39 9 70 19 48 17 58 25 63 48 4 15 5 29 3 30 -1 2 5
14 15 28 9 13 16 36 16 50 -2 24 -2 24 -6 2 -3 -15 -10 -22 -18 -18 -8 3 -15
0 -17 -5 -2 -7 -14 -6 -33 1 -16 6 -39 9 -51 6 -19 -5 -21 -3 -16 16 4 18 2
20 -16 16 -12 -4 -22 -2 -22 3 0 5 -9 9 -21 9 -11 0 -17 4 -14 10 3 5 -5 12
-19 16 -13 3 -26 14 -29 24 -7 27 -79 18 -155 -20 -51 -25 -73 -31 -120 -29
-65 3 -115 17 -106 30 3 5 -6 5 -20 -1 -66 -25 -229 3 -241 41 -4 10 -11 19
-16 19 -13 0 -69 61 -67 74 3 16 -13 60 -24 67 -6 4 -6 20 0 43 6 20 8 49 5
64 -3 15 -6 36 -7 46 -1 22 -26 35 -27 14 0 -7 -4 -2 -10 10 -5 13 -6 29 -2
35 4 7 9 23 11 37 2 14 7 29 13 35 14 14 11 22 -22 60 -17 19 -26 35 -20 35 6
0 11 7 11 15 0 7 8 18 18 24 12 7 14 13 6 21 -7 7 -16 5 -28 -9z m-106 -266
c0 -8 -4 -15 -10 -15 -5 0 -7 7 -4 15 4 8 8 15 10 15 2 0 4 -7 4 -15z m-16
-43 c-8 -10 -14 -21 -13 -25 0 -10 -52 -57 -63 -57 -5 0 -8 8 -8 17 0 15 -2
14 -14 -3 -22 -29 -30 -10 -9 22 20 32 50 64 59 64 3 0 -4 -13 -16 -29 -14
-21 -17 -32 -9 -37 8 -4 9 -3 5 4 -4 7 -2 12 3 12 6 0 11 4 11 10 0 20 33 47
50 43 16 -4 16 -7 4 -21z m73 -34 c-3 -8 -6 -5 -6 6 -1 11 2 17 5 13 3 -3 4
-12 1 -19z m-74 -36 c-4 -29 -10 -42 -19 -38 -7 3 -15 -2 -19 -11 -4 -12 -9
-13 -16 -6 -8 8 -4 20 12 42 12 17 26 31 31 31 4 0 8 8 8 17 0 9 2 14 4 12 3
-2 2 -24 -1 -47z m-73 -32 c0 -5 -5 -10 -11 -10 -5 0 -7 5 -4 10 3 6 8 10 11
10 2 0 4 -4 4 -10z m74 -46 c5 -14 4 -15 -8 -5 -12 10 -15 8 -18 -9 -3 -23
-20 -29 -27 -9 -2 7 1 9 8 5 7 -5 11 1 11 13 0 25 25 28 34 5z"/>
<path d="M4281 4843 c-10 -24 -9 -26 2 -11 8 10 17 15 21 11 4 -4 4 0 0 10 -8
22 -9 22 -23 -10z"/>
<path d="M4116 4844 c-5 -14 -4 -15 9 -4 17 14 19 20 6 20 -5 0 -12 -7 -15
-16z"/>
<path d="M7130 4735 c-7 -21 -9 -55 -5 -83 4 -35 0 -69 -16 -127 -12 -44 -28
-102 -36 -130 -7 -27 -11 -56 -8 -64 3 -8 3 -40 -1 -72 -5 -46 -9 -55 -19 -46
-7 7 -11 15 -9 19 2 4 -1 10 -7 14 -8 5 -10 0 -6 -17 7 -28 -6 -55 -22 -45 -6
4 -11 0 -11 -8 0 -9 -4 -16 -10 -16 -5 0 -10 12 -10 26 0 14 3 23 8 21 4 -3 8
8 9 24 1 17 -2 27 -7 24 -6 -4 -10 1 -10 9 0 10 8 15 23 13 16 -1 22 3 21 16
-1 12 2 15 10 8 8 -7 11 -1 11 20 0 25 -2 27 -12 14 -16 -23 -25 -2 -17 40 3
19 2 35 -2 35 -17 -1 -44 -27 -44 -43 0 -9 -4 -18 -9 -22 -8 -5 -24 -77 -23
-102 0 -5 -6 -16 -15 -25 -11 -12 -12 -21 -4 -37 6 -11 10 -30 10 -43 -1 -19
-3 -18 -9 7 -6 25 -8 21 -9 -25 -2 -66 -10 -102 -22 -94 -5 3 -9 0 -9 -5 0 -6
5 -11 10 -11 6 0 10 -5 10 -11 0 -5 -4 -7 -10 -4 -16 10 -12 -17 6 -36 10 -11
12 -19 5 -24 -6 -3 -12 2 -12 12 -1 10 -4 5 -8 -12 -8 -37 -2 -107 9 -100 10
6 20 -19 22 -58 2 -44 18 85 18 149 0 38 6 56 20 69 22 19 27 55 9 55 -7 0 -9
8 -4 23 3 12 7 28 7 34 2 18 36 47 58 48 22 2 36 -41 25 -75 -4 -12 -2 -20 5
-20 6 0 10 -6 8 -12 -1 -7 2 -40 7 -73 5 -33 7 -66 6 -74 -1 -7 2 -10 7 -7 17
10 20 79 5 109 -12 23 -12 27 1 27 9 0 13 6 10 13 -2 7 4 24 16 37 13 15 20
18 21 9 1 -8 4 -3 8 11 4 14 4 35 0 48 -5 12 -5 22 0 22 5 0 7 8 4 19 -3 10 0
22 7 26 8 5 8 10 -1 21 -6 7 -8 22 -4 31 4 10 8 111 10 224 1 113 6 219 9 236
10 44 -10 50 -24 8z m-130 -425 c0 -5 -2 -10 -4 -10 -3 0 -8 5 -11 10 -3 6 -1
10 4 10 6 0 11 -4 11 -10z"/>
<path d="M7001 4544 c0 -11 3 -14 6 -6 3 7 2 16 -1 19 -3 4 -6 -2 -5 -13z"/>
<path d="M2790 4509 c0 -5 5 -7 10 -4 6 3 10 8 10 11 0 2 -4 4 -10 4 -5 0 -10
-5 -10 -11z"/>
<path d="M6972 4480 c0 -14 2 -19 5 -12 2 6 2 18 0 25 -3 6 -5 1 -5 -13z"/>
<path d="M2797 4385 c3 -8 9 -12 14 -9 12 7 11 11 -5 17 -10 4 -13 1 -9 -8z"/>
<path d="M2869 4138 c-7 -25 -7 -48 0 -43 6 3 9 14 8 25 -1 17 -5 26 -8 18z"/>
<path d="M6985 4100 c-3 -5 1 -10 9 -10 9 0 16 5 16 10 0 6 -4 10 -9 10 -6 0
-13 -4 -16 -10z"/>
<path d="M2955 4081 c-6 -11 13 -26 22 -17 4 3 1 6 -6 6 -7 0 -9 5 -6 10 3 6
4 10 1 10 -3 0 -7 -4 -11 -9z"/>
<path d="M7103 4035 c0 -7 8 -10 19 -7 10 2 18 6 18 7 0 1 -8 5 -18 7 -11 3
-19 0 -19 -7z"/>
<path d="M2880 4033 c0 -12 28 -38 34 -32 2 2 -5 13 -15 23 -11 11 -19 15 -19
9z"/>
<path d="M7021 3994 c0 -11 3 -14 6 -6 3 7 2 16 -1 19 -3 4 -6 -2 -5 -13z"/>
<path d="M4012 3988 c-14 -14 -16 -28 -3 -28 9 0 24 30 18 36 -2 2 -9 -2 -15
-8z"/>
<path d="M2920 3977 c0 -12 19 -46 21 -37 0 3 2 13 4 22 2 9 -3 19 -11 22 -8
3 -14 0 -14 -7z"/>
<path d="M7097 3963 c-4 -3 -7 -15 -7 -26 0 -16 3 -17 15 -7 8 7 15 19 15 26
0 15 -12 19 -23 7z"/>
<path d="M4710 3876 c0 -8 4 -17 9 -20 5 -4 7 3 4 14 -6 23 -13 26 -13 6z"/>
<path d="M7059 3838 c-2 -23 3 -53 10 -60 3 -4 5 10 3 32 -4 39 -11 53 -13 28z"/>
<path d="M2905 3780 c3 -5 11 -10 16 -10 6 0 7 5 4 10 -3 6 -11 10 -16 10 -6
0 -7 -4 -4 -10z"/>
<path d="M3417 3757 c-3 -8 1 -21 9 -27 15 -13 17 -6 5 24 -6 17 -8 17 -14 3z"/>
<path d="M2881 3721 c-11 -39 -7 -71 10 -71 5 0 10 10 10 23 1 12 2 29 3 37 1
8 4 20 8 26 7 11 1 24 -12 24 -4 0 -12 -18 -19 -39z"/>
<path d="M6889 3693 c-1 -26 -3 -67 -4 -91 -2 -28 0 -40 7 -36 8 5 9 -6 6 -33
-6 -43 -1 -56 20 -61 9 -1 11 2 6 10 -4 7 -9 31 -9 53 -1 22 -5 53 -10 69 -5
20 -4 31 6 37 8 5 9 9 4 9 -6 0 -9 17 -7 39 2 21 -1 42 -7 45 -7 5 -11 -9 -12
-41z"/>
<path d="M3240 3699 c0 -5 5 -7 10 -4 6 3 10 8 10 11 0 2 -4 4 -10 4 -5 0 -10
-5 -10 -11z"/>
<path d="M3510 3700 c0 -6 7 -10 15 -10 8 0 15 2 15 4 0 2 -7 6 -15 10 -8 3
-15 1 -15 -4z"/>
<path d="M3160 3690 c-15 -9 -16 -9 35 -25 21 -6 19 12 -3 24 -11 6 -24 6 -32
1z"/>
<path d="M3026 3681 c-4 -5 -2 -12 3 -15 5 -4 12 -2 15 3 4 5 2 12 -3 15 -5 4
-12 2 -15 -3z"/>
<path d="M3122 3664 c-14 -16 -5 -18 17 -5 7 5 9 11 5 14 -5 3 -15 -1 -22 -9z"/>
<path d="M3252 3643 c2 -23 -1 -29 -20 -31 -13 -2 -21 -9 -18 -15 2 -7 10 -30
16 -52 31 -110 46 -151 58 -160 8 -6 16 -29 19 -50 4 -34 3 -38 -10 -27 -18
15 -48 5 -40 -14 3 -8 9 -14 14 -14 4 0 6 7 3 15 -4 8 -1 15 6 15 6 0 14 -9
17 -20 3 -11 13 -20 22 -21 12 0 11 -2 -4 -8 -11 -5 -25 -5 -30 0 -6 4 -17 4
-24 0 -9 -6 -6 -10 11 -15 17 -4 20 -8 9 -15 -10 -6 -10 -10 -1 -16 6 -4 9
-13 6 -20 -3 -8 3 -19 11 -27 15 -11 16 -11 10 5 -7 18 1 21 28 11 13 -6 14
-9 3 -16 -8 -5 6 -7 38 -5 43 2 51 0 46 -13 -5 -13 -3 -13 10 -2 13 10 17 10
21 0 4 -10 7 -11 18 0 18 17 49 15 49 -3 0 -15 24 -16 49 -1 7 5 16 5 20 -1 3
-5 13 -8 21 -8 8 1 25 -3 38 -9 18 -7 22 -15 18 -38 -4 -25 -2 -28 14 -23 15
5 28 -6 55 -44 20 -27 49 -55 64 -62 20 -9 27 -18 23 -31 -4 -19 23 -37 36
-23 4 4 1 10 -5 12 -7 3 -13 9 -13 14 0 6 5 7 10 4 6 -3 10 0 10 7 0 10 2 10
9 -1 5 -8 17 -11 32 -7 21 6 22 6 5 -5 -17 -10 -16 -13 14 -41 18 -16 29 -32
25 -36 -4 -4 -10 -1 -12 6 -3 6 -11 12 -18 12 -8 0 -21 10 -30 23 -15 20 -16
20 -13 2 2 -11 13 -25 26 -31 13 -6 29 -19 36 -29 7 -10 20 -19 29 -21 13 -2
14 3 7 22 -5 13 -5 26 -1 29 5 3 12 -13 16 -35 5 -28 16 -47 36 -62 15 -12 25
-26 22 -31 -4 -6 -1 -7 6 -3 9 6 9 12 -3 25 -19 20 -21 35 -5 25 7 -4 21 -7
32 -8 28 -1 47 -33 27 -47 -12 -9 -11 -10 5 -4 33 11 40 11 38 -2 -2 -7 4 -13
12 -13 9 0 12 6 8 16 -5 14 -2 14 22 -2 20 -13 30 -15 32 -7 3 9 12 9 29 2 16
-6 32 -5 43 1 10 5 21 7 24 3 4 -3 14 0 23 8 10 8 20 14 23 14 3 0 5 3 4 8 -2
4 2 7 8 7 5 0 7 5 3 11 -4 8 1 9 16 4 17 -5 21 -4 15 5 -5 8 -4 11 3 6 6 -3
18 1 27 11 16 15 17 15 13 -8 -2 -13 -9 -23 -16 -22 -6 2 -12 -1 -12 -6 0 -14
63 -7 68 8 3 9 0 11 -8 6 -9 -5 -11 -4 -6 3 4 7 2 12 -4 12 -6 0 -8 5 -5 10
10 16 25 12 26 -7 0 -12 2 -13 6 -5 3 9 10 7 24 -9 15 -18 21 -19 34 -9 8 7
12 16 9 21 -3 5 2 6 10 3 9 -3 16 -10 16 -16 0 -5 -4 -6 -10 -3 -5 3 -10 2
-10 -4 0 -26 20 -18 29 11 8 30 9 31 12 8 1 -14 2 -31 2 -37 -1 -7 3 -13 8
-13 5 0 9 10 10 23 0 12 3 16 6 10 2 -7 12 -13 20 -13 11 0 14 7 9 28 l-6 27
15 -25 c8 -14 14 -21 15 -16 0 5 7 2 17 -5 15 -13 15 -12 4 9 -12 22 -11 23 8
13 11 -6 22 -7 25 -3 6 10 56 8 100 -3 26 -7 28 -6 21 14 -4 13 -2 21 5 21 7
0 9 7 6 15 -14 35 -18 50 -9 39 4 -6 16 -14 27 -17 14 -6 17 -4 12 9 -3 8 -6
17 -6 18 0 2 -18 2 -40 0 -29 -2 -43 2 -50 14 -7 12 -9 13 -10 3 0 -9 -7 -11
-21 -8 -12 3 -18 3 -15 -1 11 -10 -48 -30 -61 -20 -6 5 -77 10 -156 11 -153 2
-157 1 -107 -40 13 -11 13 -14 0 -22 -11 -8 -17 -6 -21 7 -5 14 -9 11 -22 -13
-9 -17 -16 -26 -17 -22 0 5 5 17 10 27 6 11 6 21 1 25 -5 3 -13 -4 -16 -15 -7
-22 -26 -23 -33 -2 -2 7 2 10 12 6 9 -3 16 -1 16 5 0 6 -11 10 -24 9 -14 -1
-24 -7 -23 -12 2 -10 -5 -13 -49 -15 -19 -1 -25 -5 -21 -16 4 -8 2 -17 -2 -20
-5 -2 -12 11 -15 30 -4 20 -11 33 -17 30 -5 -4 -7 -11 -4 -16 4 -5 -1 -9 -9
-9 -9 0 -16 6 -16 14 0 8 -6 18 -12 22 -7 4 -10 4 -6 0 4 -5 3 -19 -2 -31 -6
-15 -5 -26 1 -29 5 -2 5 -4 -1 -2 -7 1 -11 5 -10 10 2 9 -19 26 -33 26 -5 0
-6 -4 -2 -9 7 -13 -14 -25 -50 -27 -28 -3 -29 -2 -8 9 19 10 20 14 8 30 -14
20 -32 6 -19 -15 5 -8 2 -9 -10 -5 -10 4 -20 7 -22 7 -2 0 4 8 15 19 13 13 17
27 13 47 -3 16 -7 23 -9 17 -3 -7 -12 -13 -21 -12 -11 0 -12 2 -4 6 21 8 13
21 -10 17 -23 -4 -23 -4 0 6 13 5 29 7 35 3 7 -4 6 1 -2 10 -7 9 -18 14 -24
10 -6 -4 -7 -1 -1 8 13 22 14 40 1 38 -7 -1 -25 -1 -41 0 -23 1 -27 5 -23 20
3 13 -1 21 -14 24 -20 5 -27 -17 -9 -28 6 -4 8 -11 5 -16 -4 -5 4 -9 17 -10
22 0 22 -1 3 -9 -12 -5 -14 -9 -6 -9 8 -1 12 -4 8 -7 -3 -3 -12 -2 -19 2 -7 5
-19 9 -26 10 -18 3 -23 8 -27 31 -2 10 -4 19 -4 20 -1 1 -12 -2 -26 -7 -15 -6
-27 -6 -30 0 -3 5 -12 7 -20 4 -8 -4 -12 -10 -9 -15 3 -5 -2 -9 -10 -9 -9 0
-16 7 -16 16 0 8 -4 13 -9 10 -5 -3 -12 1 -15 10 -6 15 -4 15 17 1 19 -12 27
-13 47 -2 19 10 28 11 40 2 13 -11 13 -10 1 6 -9 11 -22 16 -35 13 -12 -3 -28
-1 -36 4 -11 7 -12 10 -2 10 9 0 11 7 7 20 -3 11 -2 20 4 20 5 0 11 12 13 28
2 15 8 26 15 25 7 -2 41 -5 75 -8 41 -3 65 -10 71 -20 11 -20 27 -19 57 6 14
11 19 18 13 14 -7 -3 -13 -2 -13 4 0 10 38 27 53 23 4 -1 7 3 7 9 0 5 5 7 10
4 6 -4 8 -11 5 -16 -3 -5 1 -6 9 -3 9 3 13 10 10 15 -3 5 0 9 5 9 6 0 11 -5
11 -11 0 -7 7 -8 18 -4 29 13 174 17 167 5 -3 -5 -1 -10 4 -10 6 0 11 5 11 11
0 13 136 6 220 -10 58 -12 181 -11 173 2 -2 4 0 7 6 7 5 0 12 -6 14 -12 4 -9
8 -9 14 -3 5 6 78 10 183 10 111 -1 178 3 182 10 5 6 8 6 8 -2 0 -7 7 -10 15
-7 8 4 15 1 15 -5 0 -6 5 -11 11 -11 5 0 8 4 5 8 -2 4 4 8 14 8 15 0 18 -5 14
-21 -4 -15 -1 -22 9 -22 8 0 13 6 10 13 -8 22 6 35 27 24 11 -6 21 -6 24 -1 6
10 40 8 69 -4 11 -5 17 -3 17 6 0 10 3 10 12 1 7 -7 17 -12 22 -12 6 0 4 5 -4
11 -12 9 -11 9 5 4 32 -11 76 -10 125 4 26 8 61 10 85 6 64 -10 228 -14 218
-5 -4 5 -21 11 -38 14 -16 3 -51 12 -77 20 -26 7 -49 11 -52 8 -4 -3 -6 -1 -6
5 0 6 -9 13 -20 16 -11 3 -18 2 -16 -2 3 -4 -7 -6 -22 -5 -19 0 -28 8 -33 25
-5 17 -7 19 -8 6 -1 -10 -6 -15 -12 -12 -6 4 -8 14 -5 22 4 8 1 11 -5 7 -6 -3
-9 -15 -6 -25 6 -22 -8 -26 -16 -5 -6 14 -18 15 -47 3 -30 -13 -95 -3 -106 17
-8 13 -13 15 -18 7 -9 -13 -75 -14 -136 0 -25 5 -85 16 -135 25 -49 8 -115 21
-145 28 -60 14 -105 13 -160 -2 l-35 -10 30 -2 30 -2 -35 -8 c-19 -5 -47 -6
-61 -3 -15 3 -30 0 -33 -6 -5 -7 1 -11 15 -11 12 0 20 -3 17 -6 -3 -3 -23 -2
-44 2 -36 7 -37 8 -14 14 24 7 24 8 -15 25 -22 10 -47 19 -55 21 -26 5 -44 11
-75 25 -36 16 -200 16 -283 -2 -30 -6 -71 -11 -90 -11 -20 0 -47 -4 -61 -10
-15 -5 -51 -11 -81 -14 -30 -2 -67 -6 -82 -10 -16 -3 -28 -1 -28 4 0 5 -7 9
-15 9 -8 0 -15 -4 -15 -8 0 -4 -8 -7 -19 -6 -15 1 -17 4 -8 19 9 13 8 21 0 29
-9 9 -11 6 -7 -12 5 -22 4 -23 -9 -6 -8 9 -20 17 -28 17 -12 0 -12 2 0 9 9 6
10 11 2 15 -6 4 -16 4 -21 1 -6 -3 -13 1 -16 9 -3 9 -14 16 -23 17 -12 1 -11
3 4 7 20 7 20 7 -2 31 -22 23 -23 24 -23 3 0 -27 -17 -37 -35 -22 -12 10 -15
10 -15 -1 0 -8 -17 4 -37 25 -36 39 -36 40 -15 49 12 6 22 17 22 25 0 12 -6
10 -22 -8 -23 -25 -34 -70 -16 -70 6 0 9 -3 5 -6 -3 -3 -2 -16 3 -28 6 -16 5
-23 -5 -23 -7 0 -10 8 -7 20 4 14 1 18 -7 13 -6 -4 -11 -4 -10 1 3 13 -12 43
-22 43 -6 0 -5 -8 1 -19 17 -33 11 -49 -22 -60 -30 -11 -35 -10 -55 15 -28 36
-36 64 -16 64 8 0 11 -4 8 -10 -3 -5 -2 -10 4 -10 5 0 12 -14 16 -31 4 -16 12
-28 18 -26 18 6 20 27 3 27 -9 0 -16 5 -16 10 0 5 3 9 8 9 18 -3 32 2 32 12 0
5 -4 8 -9 5 -5 -4 -12 0 -15 6 -5 10 -7 10 -12 0 -5 -10 -9 -9 -19 4 -17 23
-45 12 -38 -16 5 -19 4 -20 -21 -9 -14 7 -26 16 -26 21 0 5 -11 13 -25 18 -22
8 -24 12 -13 29 7 11 17 17 23 14 5 -3 -3 8 -19 25 -17 18 -28 32 -25 33 31 5
42 9 47 15 4 4 -1 4 -10 1 -13 -5 -18 -1 -18 13 0 11 6 18 13 16 6 -1 9 -1 4
1 -4 3 -5 9 -2 13 3 5 1 11 -5 15 -5 3 -10 0 -10 -8 0 -8 -7 -17 -15 -21 -8
-3 -15 -1 -15 5 0 6 -4 7 -10 4 -5 -3 -10 1 -10 9 0 9 -5 16 -11 16 -6 0 -9
-12 -7 -27z m46 -98 c-3 -3 -9 2 -12 12 -6 14 -5 15 5 6 7 -7 10 -15 7 -18z
m115 -112 c9 -3 17 -13 17 -22 0 -12 -2 -13 -9 -3 -7 12 -24 18 -53 21 -5 1
-8 6 -8 12 0 7 7 8 18 4 9 -4 25 -10 35 -12z m213 -25 l19 -21 -27 18 c-29 18
-34 25 -20 25 5 0 17 -10 28 -22z m88 -7 c3 -5 -3 -11 -15 -14 -16 -4 -18 -3
-8 9 13 16 16 17 23 5z m-40 -27 c3 -8 2 -12 -4 -9 -6 3 -10 10 -10 16 0 14 7
11 14 -7z m61 -4 c3 -6 -1 -7 -9 -4 -18 7 -21 14 -7 14 6 0 13 -4 16 -10z
m614 -54 c13 -3 26 -8 29 -11 9 -9 -44 -5 -53 4 -6 5 -19 12 -30 15 -24 6 18
1 54 -8z m-1034 -76 c3 -5 1 -10 -4 -10 -6 0 -11 5 -11 10 0 6 2 10 4 10 3 0
8 -4 11 -10z m10 -38 c-3 -3 -11 0 -18 7 -9 10 -8 11 6 5 10 -3 15 -9 12 -12z
m465 -83 c0 -5 -4 -8 -9 -5 -5 3 -12 -2 -15 -11 -4 -9 -1 -20 6 -25 9 -5 4 -8
-13 -8 -16 0 -29 7 -33 16 -5 12 -2 15 10 10 14 -5 15 -4 4 9 -11 13 -10 14 4
9 9 -3 16 -1 16 5 0 6 7 11 15 11 8 0 15 -5 15 -11z m-33 -65 c-3 -3 -12 -4
-19 -1 -8 3 -5 6 6 6 11 1 17 -2 13 -5z m63 -74 c0 -5 -5 -10 -11 -10 -5 0 -7
5 -4 10 3 6 8 10 11 10 2 0 4 -4 4 -10z m153 -60 c-4 -4 -19 -10 -33 -14 -23
-5 -23 -5 3 7 15 7 24 17 20 22 -5 4 -2 5 5 0 8 -4 10 -11 5 -15z m874 -85 c0
-8 -4 -15 -9 -15 -10 0 -11 14 -1 23 9 10 10 9 10 -8z m-303 -21 c3 -8 2 -12
-4 -9 -6 3 -10 10 -10 16 0 14 7 11 14 -7z m271 5 c11 -17 -1 -21 -15 -4 -8 9
-8 15 -2 15 6 0 14 -5 17 -11z m-172 -12 c3 -8 -1 -14 -8 -14 -7 0 -11 6 -8
14 3 7 6 13 8 13 2 0 5 -6 8 -13z"/>
<path d="M3488 3643 c-16 -4 -16 -6 0 -24 22 -26 32 -24 32 6 0 25 -2 26 -32
18z"/>
<path d="M2903 3614 c-7 -12 -8 -26 -3 -34 7 -12 10 -12 15 2 4 9 5 25 3 35
-4 17 -5 16 -15 -3z"/>
<path d="M3566 3581 c-3 -5 1 -11 9 -15 8 -3 15 -1 15 4 0 13 -18 22 -24 11z"/>
<path d="M2828 3548 c-13 -11 -13 -17 -2 -38 14 -26 16 -24 19 23 2 31 3 31
-17 15z"/>
<path d="M3050 3544 c0 -8 5 -12 10 -9 6 3 10 10 10 16 0 5 -4 9 -10 9 -5 0
-10 -7 -10 -16z"/>
<path d="M3440 3550 c0 -5 5 -10 11 -10 5 0 7 5 4 10 -3 6 -8 10 -11 10 -2 0
-4 -4 -4 -10z"/>
<path d="M3513 3522 c0 -20 2 -31 5 -24 2 6 7 10 12 7 4 -3 10 8 12 23 3 21 0
28 -12 29 -13 1 -17 -7 -17 -35z"/>
<path d="M7035 3540 c-3 -5 -1 -10 4 -10 6 0 11 5 11 10 0 6 -2 10 -4 10 -3 0
-8 -4 -11 -10z"/>
<path d="M2790 3520 c0 -5 5 -10 11 -10 5 0 7 5 4 10 -3 6 -8 10 -11 10 -2 0
-4 -4 -4 -10z"/>
<path d="M3413 3515 c0 -8 4 -12 9 -9 5 3 6 10 3 15 -9 13 -12 11 -12 -6z"/>
<path d="M3151 3464 c0 -11 3 -14 6 -6 3 7 2 16 -1 19 -3 4 -6 -2 -5 -13z"/>
<path d="M2840 3460 c-9 -6 -10 -10 -3 -10 6 0 15 5 18 10 8 12 4 12 -15 0z"/>
<path d="M3270 3360 c6 -11 15 -18 21 -15 5 4 3 12 -5 21 -21 20 -28 17 -16
-6z"/>
<path d="M6961 3304 c0 -11 3 -14 6 -6 3 7 2 16 -1 19 -3 4 -6 -2 -5 -13z"/>
<path d="M5573 3270 c-1 -11 2 -20 5 -20 4 0 8 9 9 20 1 11 -2 20 -5 20 -4 0
-8 -9 -9 -20z"/>
<path d="M3090 3260 c0 -11 2 -20 4 -20 2 0 6 9 9 20 3 11 1 20 -4 20 -5 0 -9
-9 -9 -20z"/>
<path d="M4055 3140 c-3 -5 -1 -10 4 -10 6 0 11 5 11 10 0 6 -2 10 -4 10 -3 0
-8 -4 -11 -10z"/>
<path d="M4095 3133 c-10 -9 -34 -17 -54 -18 -20 0 -35 -4 -33 -8 1 -4 2 -12
2 -18 0 -5 4 -8 9 -5 5 3 14 -1 21 -10 7 -8 19 -13 27 -10 8 4 13 -3 14 -17 1
-17 2 -18 6 -4 2 9 9 15 14 12 13 -9 11 9 -3 23 -9 9 -9 12 0 12 7 0 12 -5 12
-11 0 -5 5 -7 12 -3 8 5 9 2 5 -9 -4 -11 -1 -17 8 -17 9 0 41 -14 72 -32 31
-18 53 -27 49 -20 -11 18 5 15 44 -9 28 -18 32 -18 20 -4 -12 14 -12 19 -2 22
6 3 12 9 12 14 0 6 -4 8 -9 5 -5 -4 -12 0 -14 6 -3 7 -6 2 -7 -12 l-1 -25 -11
25 c-6 14 -10 29 -9 33 0 4 -6 10 -14 13 -8 4 -15 10 -15 15 0 5 -9 18 -19 28
-20 20 -20 20 -27 -1 l-7 -22 -17 22 c-10 11 -20 18 -24 15 -3 -4 -6 2 -7 13
0 14 -4 12 -15 -11 l-15 -30 6 28 c6 31 -6 35 -30 10z m145 -108 c7 -9 8 -15
2 -15 -5 0 -12 7 -16 15 -3 8 -4 15 -2 15 2 0 9 -7 16 -15z"/>
<path d="M4454 3021 c4 -5 0 -11 -6 -14 -7 -3 -3 -4 8 -4 21 1 23 27 2 27 -5
0 -7 -4 -4 -9z"/>
<path d="M4445 2980 c3 -5 10 -10 16 -10 5 0 9 5 9 10 0 6 -7 10 -16 10 -8 0
-12 -4 -9 -10z"/>
<path d="M4066 2952 c-5 -9 22 -47 29 -40 3 3 -1 12 -9 21 -8 8 -12 17 -9 21
4 3 4 6 0 6 -3 0 -8 -3 -11 -8z"/>
<path d="M4105 2940 c-3 -5 1 -10 10 -10 9 0 13 5 10 10 -3 6 -8 10 -10 10 -2
0 -7 -4 -10 -10z"/>
<path d="M4066 2891 c-4 -5 3 -16 15 -24 13 -9 16 -16 8 -19 -8 -3 -7 -8 4
-20 9 -8 13 -19 9 -23 -4 -5 -1 -5 6 -1 7 5 11 10 8 13 -3 3 -1 14 4 23 8 15
5 19 -16 24 -13 4 -22 11 -19 16 3 5 1 11 -4 14 -5 4 -12 2 -15 -3z"/>
<path d="M3314 2825 c11 -8 22 -12 25 -9 6 6 -19 24 -34 24 -5 -1 -1 -7 9 -15z"/>
<path d="M3320 2790 c0 -6 7 -10 15 -10 8 0 15 2 15 4 0 2 -7 6 -15 10 -8 3
-15 1 -15 -4z"/>
<path d="M4500 2770 c0 -5 5 -10 11 -10 5 0 7 5 4 10 -3 6 -8 10 -11 10 -2 0
-4 -4 -4 -10z"/>
<path d="M4080 2761 c0 -6 4 -13 10 -16 6 -3 7 1 4 9 -7 18 -14 21 -14 7z"/>
<path d="M3432 2731 c7 -11 15 -18 20 -15 4 3 13 -4 20 -16 15 -23 33 -27 24
-4 -3 8 -2 12 4 9 6 -3 10 -2 10 3 0 9 -24 24 -42 26 -3 1 -10 4 -14 9 -4 4
-13 7 -21 7 -11 0 -11 -4 -1 -19z"/>
<path d="M4055 2710 c3 -5 11 -10 16 -10 6 0 7 5 4 10 -3 6 -11 10 -16 10 -6
0 -7 -4 -4 -10z"/>
<path d="M4041 2682 c10 -29 15 -32 52 -32 42 0 47 7 9 13 -12 2 -33 14 -47
27 l-25 24 11 -32z"/>
<path d="M3440 2696 c0 -2 7 -6 15 -10 8 -3 15 -1 15 4 0 6 -7 10 -15 10 -8 0
-15 -2 -15 -4z"/>
<path d="M3575 2680 c-3 -5 -1 -10 4 -10 6 0 11 5 11 10 0 6 -2 10 -4 10 -3 0
-8 -4 -11 -10z"/>
<path d="M6281 2561 c-12 -28 -30 -51 -41 -54 -11 -3 -20 -2 -20 3 0 11 26 31
32 24 3 -3 11 10 17 28 9 26 9 30 -1 20 -6 -6 -20 -12 -31 -12 -12 0 -16 -4
-11 -12 5 -8 2 -8 -10 1 -15 12 -17 12 -14 0 2 -8 -3 -13 -11 -11 -7 2 -24 -6
-36 -18 -13 -13 -28 -18 -39 -14 -15 6 -15 3 -5 -20 9 -20 10 -29 1 -38 -8 -8
-9 -5 -5 12 6 23 6 23 -15 4 -11 -10 -28 -25 -36 -32 -20 -16 -21 -32 -1 -32
9 0 12 6 9 15 -7 17 4 19 25 6 12 -8 10 -12 -12 -22 -31 -14 -36 -30 -7 -22
11 3 20 10 20 15 0 6 7 7 15 4 9 -3 23 -2 33 3 9 5 31 13 47 18 17 5 29 15 28
21 -2 6 3 9 10 7 15 -6 58 55 74 104 10 33 12 34 18 14 9 -28 17 -29 38 -5 24
26 21 39 -3 17 -20 -18 -21 -18 -27 3 -8 33 -17 27 -42 -27z m-81 -71 c-7 -4
-9 -13 -5 -20 6 -9 3 -9 -13 -1 -29 15 -36 30 -12 24 12 -3 20 0 20 6 0 7 5 9
11 5 8 -5 8 -9 -1 -14z m-45 -29 c-3 -6 3 -14 12 -20 10 -6 14 -10 8 -11 -19
0 -38 18 -31 29 4 6 9 11 12 11 3 0 3 -4 -1 -9z"/>
<path d="M6475 2570 c-3 -6 1 -7 9 -4 18 7 21 14 7 14 -6 0 -13 -4 -16 -10z"/>
<path d="M6305 2520 c3 -5 8 -10 11 -10 2 0 4 5 4 10 0 6 -5 10 -11 10 -5 0
-7 -4 -4 -10z"/>
<path d="M6020 2476 c0 -2 11 -6 25 -8 14 -3 25 -1 25 3 0 5 -11 9 -25 9 -14
0 -25 -2 -25 -4z"/>
<path d="M6004 2446 c-10 -8 -16 -17 -12 -21 4 -4 17 2 29 14 26 24 13 29 -17
7z"/>
<path d="M6355 2450 c-4 -7 -1 -16 6 -21 17 -10 26 8 11 23 -6 6 -12 6 -17 -2z"/>
<path d="M6395 2450 c-3 -5 -1 -10 4 -10 6 0 11 5 11 10 0 6 -2 10 -4 10 -3 0
-8 -4 -11 -10z"/>
<path d="M6277 2432 c-16 -15 -19 -15 -28 -2 -9 12 -10 12 -5 -4 5 -13 2 -17
-9 -13 -8 4 -17 2 -20 -3 -3 -6 11 -9 35 -7 26 1 39 6 36 14 -3 6 0 14 7 16 7
2 9 7 6 10 -3 4 -13 -1 -22 -11z"/>
<path d="M6180 2390 c0 -6 7 -10 15 -10 8 0 15 2 15 4 0 2 -7 6 -15 10 -8 3
-15 1 -15 -4z"/>
<path d="M6280 2381 c0 -5 5 -13 10 -16 6 -3 10 -2 10 4 0 5 -4 13 -10 16 -5
3 -10 2 -10 -4z"/>
<path d="M6091 2367 c-6 -8 -22 -13 -36 -11 -14 1 -23 -2 -19 -7 3 -5 9 -7 14
-4 14 8 40 -6 34 -19 -4 -6 4 -1 17 11 16 16 20 26 13 33 -8 8 -14 7 -23 -3z"/>
<path d="M6005 2320 c-8 -13 5 -13 25 0 13 8 13 10 -2 10 -9 0 -20 -4 -23 -10z"/>
<path d="M5962 2301 c-9 -5 -2 -8 20 -9 23 -1 28 2 18 8 -18 12 -22 12 -38 1z"/>
<path d="M3735 2290 c3 -5 8 -10 11 -10 2 0 4 5 4 10 0 6 -5 10 -11 10 -5 0
-7 -4 -4 -10z"/>
<path d="M5660 2291 c0 -6 4 -13 10 -16 6 -3 7 1 4 9 -7 18 -14 21 -14 7z"/>
<path d="M5758 2203 c6 -2 9 -10 6 -15 -4 -7 -2 -8 4 -4 18 11 14 26 -5 25
-11 0 -13 -3 -5 -6z"/>
<path d="M5726 2154 c-9 -24 -4 -24 18 -3 16 16 17 19 4 19 -9 0 -19 -7 -22
-16z"/>
<path d="M5666 2144 c-8 -22 -4 -25 11 -9 7 8 9 16 4 19 -5 3 -12 -1 -15 -10z"/>
<path d="M3785 2140 c3 -5 8 -10 11 -10 2 0 4 5 4 10 0 6 -5 10 -11 10 -5 0
-7 -4 -4 -10z"/>
<path d="M3870 2099 c0 -5 5 -7 10 -4 6 3 10 8 10 11 0 2 -4 4 -10 4 -5 0 -10
-5 -10 -11z"/>
<path d="M3995 2038 c2 -31 24 -70 36 -63 11 7 12 26 2 24 -18 -3 -27 2 -16 9
8 5 7 13 -6 30 l-17 23 1 -23z"/>
<path d="M4155 1929 c-4 -6 -5 -12 -2 -15 2 -3 7 2 10 11 7 17 1 20 -8 4z"/>
<path d="M4196 1922 c6 -4 14 -16 17 -26 4 -10 10 -16 14 -13 10 10 44 -13 37
-25 -4 -7 -3 -8 4 -4 20 12 13 34 -13 40 -14 4 -25 13 -25 21 0 9 -9 15 -22
15 -13 0 -18 -4 -12 -8z"/>
<path d="M4571 1894 c0 -11 3 -14 6 -6 3 7 2 16 -1 19 -3 4 -6 -2 -5 -13z"/>
<path d="M4544 1855 c10 -8 23 -12 27 -9 5 3 9 1 9 -3 0 -5 9 -9 19 -9 11 0
17 4 15 8 -3 4 2 8 10 8 9 0 16 5 16 10 0 13 -17 13 -25 0 -4 -6 -15 -8 -25
-5 -10 3 -29 8 -42 10 -22 4 -22 4 -4 -10z"/>
<path d="M4456 1844 c-5 -14 -4 -15 9 -4 17 14 19 20 6 20 -5 0 -12 -7 -15
-16z"/>
<path d="M4975 1834 c-16 -25 -16 -25 1 -16 10 5 19 17 20 26 3 22 -1 20 -21
-10z"/>
<path d="M4350 1819 c0 -5 5 -7 10 -4 6 3 10 8 10 11 0 2 -4 4 -10 4 -5 0 -10
-5 -10 -11z"/>
<path d="M4872 1790 c0 -14 2 -19 5 -12 2 6 2 18 0 25 -3 6 -5 1 -5 -13z"/>
<path d="M4930 1799 c0 -5 -4 -7 -10 -4 -5 3 -10 1 -10 -4 0 -6 7 -11 15 -11
8 0 15 7 15 15 0 8 -2 15 -5 15 -3 0 -5 -5 -5 -11z"/>
<path d="M4830 1785 c0 -8 2 -15 4 -15 2 0 6 7 10 15 3 8 1 15 -4 15 -6 0 -10
-7 -10 -15z"/>
<path d="M4990 1779 c0 -5 5 -7 10 -4 6 3 10 8 10 11 0 2 -4 4 -10 4 -5 0 -10
-5 -10 -11z"/>
<path d="M2934 7955 c-10 -8 -14 -15 -8 -15 6 0 17 7 24 15 16 19 9 19 -16 0z"/>
<path d="M2941 6774 c0 -11 3 -14 6 -6 3 7 2 16 -1 19 -3 4 -6 -2 -5 -13z"/>
<path d="M2975 6719 c-4 -6 -5 -12 -2 -15 2 -3 7 2 10 11 7 17 1 20 -8 4z"/>
<path d="M3440 6090 c0 -5 7 -10 16 -10 8 0 12 5 9 10 -3 6 -10 10 -16 10 -5
0 -9 -4 -9 -10z"/>
<path d="M6778 1992 c7 -5 10 -16 6 -28 -6 -15 -4 -17 6 -7 15 14 7 43 -12 43
-11 0 -11 -2 0 -8z"/>
<path d="M7052 1830 c0 -14 2 -19 5 -12 2 6 2 18 0 25 -3 6 -5 1 -5 -13z"/>
<path d="M7022 1690 c0 -19 2 -27 5 -17 2 9 2 25 0 35 -3 9 -5 1 -5 -18z"/>
<path d="M6685 1669 c-4 -6 -5 -12 -2 -15 2 -3 7 2 10 11 7 17 1 20 -8 4z"/>
<path d="M6243 1613 c-15 -5 -17 -23 -4 -23 5 0 11 7 15 15 3 8 4 15 3 14 -1
0 -8 -3 -14 -6z"/>
<path d="M6980 1620 c-1 -3 -3 -34 -6 -69 -5 -58 -4 -63 10 -52 18 15 22 87 6
111 -5 8 -10 13 -10 10z"/>
<path d="M6265 1559 c-11 -16 -1 -19 13 -3 7 8 8 14 3 14 -5 0 -13 -5 -16 -11z"/>
<path d="M6354 1458 l-19 -23 23 19 c21 18 27 26 19 26 -2 0 -12 -10 -23 -22z"/>
<path d="M6890 1461 c0 -5 5 -13 10 -16 6 -3 10 -2 10 4 0 5 -4 13 -10 16 -5
3 -10 2 -10 -4z"/>
<path d="M6893 1411 c-16 -25 -27 -87 -19 -107 5 -13 11 -10 30 17 14 22 20
38 14 46 -5 6 -6 23 -2 37 7 30 -6 34 -23 7z"/>
<path d="M6217 1363 c-4 -3 -7 -11 -7 -17 0 -6 5 -5 12 2 6 6 9 14 7 17 -3 3
-9 2 -12 -2z"/>
<path d="M6013 1350 c-31 -13 -29 -17 10 -17 17 0 26 2 19 5 -6 2 -10 8 -6 13
6 11 6 11 -23 -1z"/>
<path d="M5968 1313 c6 -2 18 -2 25 0 6 3 1 5 -13 5 -14 0 -19 -2 -12 -5z"/>
<path d="M6226 1233 c-6 -14 -5 -15 5 -6 7 7 10 15 7 18 -3 3 -9 -2 -12 -12z"/>
<path d="M6095 1200 c4 -6 11 -8 16 -5 14 9 11 15 -7 15 -8 0 -12 -5 -9 -10z"/>
<path d="M5929 1134 c-8 -10 -23 -14 -41 -12 -16 3 -31 1 -34 -4 -3 -4 0 -8 7
-8 8 0 8 -4 -1 -15 -16 -19 0 -19 26 -1 13 10 23 11 31 4 10 -8 13 -5 13 11 0
11 5 20 11 19 6 -2 14 3 16 10 7 17 -12 15 -28 -4z"/>
<path d="M6084 1088 l-19 -21 28 18 c28 18 33 25 19 25 -5 0 -17 -10 -28 -22z"/>
<path d="M5980 1040 c-9 -6 -10 -10 -3 -10 6 0 15 5 18 10 8 12 4 12 -15 0z"/>
<path d="M5946 997 c-11 -8 -17 -19 -15 -26 3 -9 11 -7 27 7 35 30 25 46 -12
19z"/>
<path d="M6060 830 c0 -21 -2 -25 -16 -33 -8 -4 -14 -14 -14 -22 0 -25 -21
-28 -44 -6 -20 18 -25 20 -35 7 -13 -16 -24 -83 -15 -97 3 -5 14 -4 27 3 12 7
46 13 74 14 40 1 60 8 84 28 17 14 40 26 52 26 19 1 17 3 -8 14 -16 7 -39 23
-50 36 -25 28 -55 45 -55 30z"/>
<path d="M5719 603 c-13 -16 -12 -17 4 -4 9 7 17 15 17 17 0 8 -8 3 -21 -13z"/>
<path d="M4249 1513 c-13 -16 -12 -17 4 -4 16 13 21 21 13 21 -2 0 -10 -8 -17
-17z"/>
<path d="M5638 963 c7 -3 16 -2 19 1 4 3 -2 6 -13 5 -11 0 -14 -3 -6 -6z"/>
</g>
</svg>
